<svg width="85" height="100" viewBox="0 0 85 100" fill="none" xmlns="http://www.w3.org/2000/svg">
<circle opacity="0.5" cx="53.4214" cy="46.537" r="20.8696" transform="rotate(-26.3436 53.4214 46.537)" fill="#D9D9D9"/>
<circle opacity="0.5" cx="54.1786" cy="46.7925" r="30.4348" transform="rotate(-26.3436 54.1786 46.7925)" fill="#D9D9D9"/>
<circle opacity="0.5" cx="53.5961" cy="46.5958" r="40" transform="rotate(-26.3436 53.5961 46.5958)" fill="#D9D9D9"/>
<path d="M46.2788 57.6079L67.2761 49.2489L67.8309 50.6426C68.2233 51.6282 68.2081 52.7293 67.7886 53.7038C67.3691 54.6782 66.5797 55.446 65.594 55.8384L52.0294 61.2384C51.0438 61.6308 49.9426 61.6156 48.9682 61.1961C47.9938 60.7766 47.226 59.9872 46.8336 59.0015L46.2788 57.6079Z" fill="url(#paint0_linear_186_33378)" stroke="black" stroke-width="2" stroke-linecap="round" stroke-linejoin="round"/>
<path d="M62.5114 44.5803L64.927 43.6186C65.2958 43.4573 65.6933 43.372 66.0958 43.3675C66.4983 43.3631 66.8976 43.4397 67.2699 43.5928C67.6422 43.7458 67.9798 43.9723 68.2627 44.2586C68.5457 44.5449 68.7681 44.8852 68.9168 45.2593C69.2209 46.0231 69.2091 46.8765 68.884 47.6317C68.5589 48.3868 67.9471 48.9819 67.1832 49.286L46.3717 57.571C45.9978 57.7201 45.5977 57.7924 45.1953 57.7837C44.7929 57.7749 44.3963 57.6853 44.0293 57.5201C43.6622 57.3549 43.3321 57.1175 43.0587 56.8221C42.7853 56.5266 42.5742 56.1792 42.4378 55.8005C42.2778 55.4361 42.1944 55.0427 42.1929 54.6447C42.1914 54.2468 42.2719 53.8527 42.4293 53.4872C42.5866 53.1217 42.8175 52.7924 43.1076 52.52C43.3977 52.2476 43.7408 52.0377 44.1155 51.9036L52.2915 48.6488" fill="url(#paint1_linear_186_33378)"/>
<path d="M62.5114 44.5803L64.927 43.6186C65.2958 43.4573 65.6933 43.372 66.0958 43.3675C66.4983 43.3631 66.8976 43.4397 67.2699 43.5928C67.6422 43.7458 67.9798 43.9723 68.2627 44.2586C68.5457 44.5449 68.7681 44.8852 68.9168 45.2593C69.2209 46.0231 69.2091 46.8765 68.884 47.6317C68.5589 48.3868 67.9471 48.9819 67.1832 49.286L46.3717 57.571C45.9978 57.7201 45.5977 57.7924 45.1953 57.7837C44.7929 57.7749 44.3963 57.6853 44.0293 57.5201C43.6622 57.3549 43.3321 57.1175 43.0587 56.8221C42.7853 56.5266 42.5742 56.1792 42.4378 55.8005C42.2778 55.4361 42.1944 55.0427 42.1929 54.6447C42.1914 54.2468 42.2719 53.8527 42.4293 53.4872C42.5866 53.1217 42.8175 52.7924 43.1076 52.52C43.3977 52.2476 43.7408 52.0377 44.1155 51.9036L52.2915 48.6488" stroke="black" stroke-width="2" stroke-linecap="round" stroke-linejoin="round"/>
<path d="M67.0673 40.6139C67.2554 41.1068 67.2412 41.6541 67.0277 42.1365C66.9374 42.3837 66.794 42.6081 66.6076 42.7939C66.4212 42.9797 66.1963 43.1223 65.9489 43.2118L61.1176 45.1351L59.4012 50.0161L54.7998 47.6502L43.0934 52.3105C42.8537 52.4063 42.5969 52.4523 42.3389 52.4456C42.0808 52.4389 41.8268 52.3796 41.5924 52.2715C41.358 52.1634 41.148 52.0086 40.9754 51.8167C40.8028 51.6247 40.6711 51.3996 40.5884 51.155C40.4804 50.9206 40.4214 50.6665 40.4148 50.4085C40.4083 50.1504 40.4544 49.8937 40.5504 49.654C40.6463 49.4144 40.7902 49.1968 40.973 49.0146C41.1559 48.8323 41.3739 48.6893 41.6139 48.5941L64.4694 39.4954C64.9622 39.2992 65.5128 39.3068 66 39.5166C66.4872 39.7263 66.8711 40.1211 67.0673 40.6139Z" fill="white" stroke="black" stroke-width="2" stroke-linecap="round" stroke-linejoin="round"/>
<path d="M47.2413 36.7742L52.3513 34.74C54.4704 33.8964 56.8379 33.9291 58.9328 34.831C61.0278 35.7329 62.6787 37.4301 63.5223 39.5493L42.4321 47.9452C41.5885 45.8261 41.6212 43.4587 42.5231 41.3637C43.425 39.2687 45.1222 37.6179 47.2413 36.7742Z" fill="url(#paint2_linear_186_33378)" stroke="black" stroke-width="2" stroke-linecap="round" stroke-linejoin="round"/>
<path d="M46.2114 42.0278L47.8072 42.7918" stroke="black" stroke-width="2" stroke-linecap="round" stroke-linejoin="round"/>
<path d="M56.0605 37.5688L57.7862 38.3887" stroke="black" stroke-width="2" stroke-linecap="round" stroke-linejoin="round"/>
<path d="M50.7081 40.3455L51.528 38.6199" stroke="black" stroke-width="2" stroke-linecap="round" stroke-linejoin="round"/>
<defs>
<linearGradient id="paint0_linear_186_33378" x1="46.6682" y1="58.3736" x2="53.2203" y2="66.8302" gradientUnits="userSpaceOnUse">
<stop stop-color="#FFA654"/>
<stop offset="1" stop-color="#F26702"/>
</linearGradient>
<linearGradient id="paint1_linear_186_33378" x1="70.0634" y1="48.1394" x2="63.4265" y2="38.2221" gradientUnits="userSpaceOnUse">
<stop stop-color="#FFD15C"/>
<stop offset="1" stop-color="#F3AF00"/>
</linearGradient>
<linearGradient id="paint2_linear_186_33378" x1="39.8193" y1="41.1685" x2="51.2165" y2="52.2333" gradientUnits="userSpaceOnUse">
<stop stop-color="#FFA654"/>
<stop offset="1" stop-color="#F26702"/>
</linearGradient>
</defs>
</svg>
