<svg width="21" height="20" viewBox="0 0 21 20" fill="none" xmlns="http://www.w3.org/2000/svg">
<g clip-path="url(#clip0_417_31691)">
<path d="M10.5 1.87549C8.89303 1.87549 7.32214 2.35201 5.986 3.2448C4.64985 4.13758 3.60844 5.40654 2.99348 6.89119C2.37852 8.37583 2.21762 10.0095 2.53112 11.5856C2.84463 13.1617 3.61846 14.6094 4.75476 15.7457C5.89106 16.882 7.3388 17.6559 8.9149 17.9694C10.491 18.2829 12.1247 18.122 13.6093 17.507C15.094 16.892 16.3629 15.8506 17.2557 14.5145C18.1485 13.1783 18.625 11.6075 18.625 10.0005C18.6227 7.8463 17.766 5.781 16.2427 4.25776C14.7195 2.73452 12.6542 1.87776 10.5 1.87549ZM14.0672 8.56768L9.69219 12.9427C9.63415 13.0008 9.56522 13.0469 9.48934 13.0783C9.41347 13.1098 9.33214 13.126 9.25 13.126C9.16787 13.126 9.08654 13.1098 9.01067 13.0783C8.93479 13.0469 8.86586 13.0008 8.80782 12.9427L6.93282 11.0677C6.81554 10.9504 6.74966 10.7913 6.74966 10.6255C6.74966 10.4596 6.81554 10.3006 6.93282 10.1833C7.05009 10.066 7.20915 10.0001 7.375 10.0001C7.54086 10.0001 7.69992 10.066 7.81719 10.1833L9.25 11.6169L13.1828 7.6833C13.2409 7.62523 13.3098 7.57917 13.3857 7.54774C13.4616 7.51632 13.5429 7.50014 13.625 7.50014C13.7071 7.50014 13.7884 7.51632 13.8643 7.54774C13.9402 7.57917 14.0091 7.62523 14.0672 7.6833C14.1253 7.74137 14.1713 7.81031 14.2027 7.88618C14.2342 7.96205 14.2504 8.04337 14.2504 8.12549C14.2504 8.20761 14.2342 8.28893 14.2027 8.3648C14.1713 8.44067 14.1253 8.50961 14.0672 8.56768Z" fill="#06C740"/>
</g>
<defs>
<clipPath id="clip0_417_31691">
<rect width="20" height="20" fill="white" transform="translate(0.5 0.000488281)"/>
</clipPath>
</defs>
</svg>
