<svg width="52" height="52" viewBox="0 0 52 52" fill="none" xmlns="http://www.w3.org/2000/svg">
<g clip-path="url(#clip0_248_25529)">
<rect width="52" height="52" rx="26" fill="white"/>
<path d="M26 0C20.8577 0 15.8309 1.52487 11.5552 4.38179C7.27951 7.23871 3.94702 11.2994 1.97914 16.0502C0.0112654 20.8011 -0.503621 26.0288 0.499594 31.0723C1.50281 36.1159 3.97907 40.7486 7.61524 44.3848C11.2514 48.0209 15.8842 50.4972 20.9277 51.5004C25.9712 52.5036 31.1989 51.9887 35.9498 50.0209C40.7007 48.053 44.7613 44.7205 47.6182 40.4448C50.4751 36.1691 52 31.1423 52 26C51.9927 19.1066 49.2511 12.4976 44.3767 7.62326C39.5024 2.74889 32.8934 0.00727955 26 0ZM40 28H30.8275L37.415 34.585C37.6008 34.7708 37.7482 34.9914 37.8488 35.2342C37.9494 35.477 38.0011 35.7372 38.0011 36C38.0011 36.2628 37.9494 36.523 37.8488 36.7658C37.7482 37.0086 37.6008 37.2292 37.415 37.415C37.2292 37.6008 37.0086 37.7482 36.7658 37.8488C36.523 37.9494 36.2628 38.0011 36 38.0011C35.7372 38.0011 35.477 37.9494 35.2342 37.8488C34.9914 37.7482 34.7708 37.6008 34.585 37.415L24.585 27.415C24.305 27.1353 24.1143 26.7788 24.037 26.3906C23.9597 26.0024 23.9993 25.6001 24.1508 25.2344C24.3023 24.8688 24.5589 24.5563 24.888 24.3366C25.2172 24.1168 25.6042 23.9997 26 24H40C40.5304 24 41.0392 24.2107 41.4142 24.5858C41.7893 24.9609 42 25.4696 42 26C42 26.5304 41.7893 27.0391 41.4142 27.4142C41.0392 27.7893 40.5304 28 40 28Z" fill="#FF8400"/>
</g>
<defs>
<clipPath id="clip0_248_25529">
<rect width="52" height="52" rx="26" fill="white"/>
</clipPath>
</defs>
</svg>
