<svg width="20" height="20" viewBox="0 0 20 20" fill="none" xmlns="http://www.w3.org/2000/svg">
<path d="M19.5674 9.3083L13.3174 3.0583C13.23 2.97084 13.1187 2.91126 12.9975 2.88707C12.8762 2.86289 12.7505 2.87521 12.6363 2.92245C12.5221 2.9697 12.4244 3.04976 12.3557 3.15252C12.287 3.25527 12.2503 3.37609 12.2502 3.49971V6.65205C10.2236 6.82549 7.98535 7.81768 6.14395 9.3794C3.92676 11.2606 2.54629 13.6849 2.25645 16.2052C2.2338 16.4011 2.27353 16.5992 2.36998 16.7713C2.46644 16.9433 2.6147 17.0806 2.79368 17.1635C2.97266 17.2464 3.17322 17.2707 3.36684 17.2331C3.56045 17.1954 3.73725 17.0976 3.87207 16.9536C4.73145 16.0388 7.78926 13.1458 12.2502 12.8911V15.9997C12.2503 16.1233 12.287 16.2442 12.3557 16.3469C12.4244 16.4497 12.5221 16.5297 12.6363 16.577C12.7505 16.6242 12.8762 16.6365 12.9975 16.6123C13.1187 16.5882 13.23 16.5286 13.3174 16.4411L19.5674 10.1911C19.6843 10.074 19.7499 9.91521 19.7499 9.74971C19.7499 9.58421 19.6843 9.42547 19.5674 9.3083ZM13.5002 14.4911V12.2497C13.5002 12.084 13.4343 11.925 13.3171 11.8078C13.1999 11.6906 13.041 11.6247 12.8752 11.6247C10.6814 11.6247 8.54473 12.1974 6.52442 13.3278C5.49547 13.9061 4.53677 14.6014 3.66738 15.3997C4.12051 13.5372 5.2627 11.7661 6.95254 10.3325C8.7666 8.79424 10.9807 7.87471 12.8752 7.87471C13.041 7.87471 13.1999 7.80886 13.3171 7.69165C13.4343 7.57444 13.5002 7.41547 13.5002 7.24971V5.00909L18.2416 9.74971L13.5002 14.4911Z" fill="#282828"/>
</svg>
