<svg width="21" height="20" viewBox="0 0 21 20" fill="none" xmlns="http://www.w3.org/2000/svg">
<g clip-path="url(#clip0_417_32213)">
<path d="M10.5 1.875C8.89303 1.875 7.32214 2.35152 5.986 3.24431C4.64985 4.1371 3.60844 5.40605 2.99348 6.8907C2.37852 8.37535 2.21762 10.009 2.53112 11.5851C2.84463 13.1612 3.61846 14.6089 4.75476 15.7452C5.89106 16.8815 7.3388 17.6554 8.9149 17.9689C10.491 18.2824 12.1247 18.1215 13.6093 17.5065C15.094 16.8916 16.3629 15.8502 17.2557 14.514C18.1485 13.1779 18.625 11.607 18.625 10C18.6227 7.84581 17.766 5.78051 16.2427 4.25727C14.7195 2.73403 12.6542 1.87727 10.5 1.875ZM14.875 10.625H12.0086L14.0672 12.6828C14.1253 12.7409 14.1713 12.8098 14.2027 12.8857C14.2342 12.9616 14.2504 13.0429 14.2504 13.125C14.2504 13.2071 14.2342 13.2884 14.2027 13.3643C14.1713 13.4402 14.1253 13.5091 14.0672 13.5672C14.0091 13.6253 13.9402 13.6713 13.8643 13.7027C13.7884 13.7342 13.7071 13.7503 13.625 13.7503C13.5429 13.7503 13.4616 13.7342 13.3857 13.7027C13.3098 13.6713 13.2409 13.6253 13.1828 13.5672L10.0578 10.4422C9.97031 10.3548 9.9107 10.2434 9.88655 10.1221C9.86239 10.0008 9.87477 9.87502 9.92211 9.76076C9.96946 9.64649 10.0496 9.54884 10.1525 9.48018C10.2554 9.41151 10.3763 9.3749 10.5 9.375H14.875C15.0408 9.375 15.1997 9.44085 15.3169 9.55806C15.4342 9.67527 15.5 9.83424 15.5 10C15.5 10.1658 15.4342 10.3247 15.3169 10.4419C15.1997 10.5592 15.0408 10.625 14.875 10.625Z" fill="#FF8400"/>
</g>
<defs>
<clipPath id="clip0_417_32213">
<rect width="20" height="20" fill="white" transform="translate(0.5)"/>
</clipPath>
</defs>
</svg>
