<svg width="134" height="167" viewBox="0 0 134 167" fill="none" xmlns="http://www.w3.org/2000/svg">
<path d="M68.9326 166.331C94.3101 166.331 114.883 162.387 114.883 157.522C114.883 152.657 94.3101 148.713 68.9326 148.713C43.5552 148.713 22.9827 152.657 22.9827 157.522C22.9827 162.387 43.5552 166.331 68.9326 166.331Z" fill="#BFBFBF"/>
<path d="M120.15 85.7009L96.9861 78.3245V7.70408L120.15 0.331543V85.7009Z" fill="white" stroke="#263238" stroke-width="0.170303" stroke-linecap="round" stroke-linejoin="round"/>
<path d="M108.039 10.3418L101.968 26.902" stroke="#263238" stroke-width="0.170303" stroke-linecap="round" stroke-linejoin="round"/>
<path d="M109.016 7.67725L108.371 9.44218" stroke="#263238" stroke-width="0.170303" stroke-linecap="round" stroke-linejoin="round"/>
<path d="M110.503 3.62207L109.306 6.88545" stroke="#263238" stroke-width="0.170303" stroke-linecap="round" stroke-linejoin="round"/>
<path d="M110.947 12.644L102.914 34.557" stroke="#263238" stroke-width="0.170303" stroke-linecap="round" stroke-linejoin="round"/>
<path d="M113.963 4.42139L111.368 11.5004" stroke="#263238" stroke-width="0.170303" stroke-linecap="round" stroke-linejoin="round"/>
<path d="M108.252 55.0366L102.096 71.8286" stroke="#263238" stroke-width="0.170303" stroke-linecap="round" stroke-linejoin="round"/>
<path d="M104.981 134.71L79.978 116.35" stroke="#263238" stroke-width="0.170303" stroke-linecap="round" stroke-linejoin="round"/>
<path d="M99.6049 130.763L98.9368 130.272" stroke="#263238" stroke-width="0.170303" stroke-linecap="round" stroke-linejoin="round"/>
<path d="M124.047 148.713L103.459 133.59" stroke="#263238" stroke-width="0.170303" stroke-linecap="round" stroke-linejoin="round"/>
<path d="M11.7367 116.35H4.07446" stroke="#263238" stroke-width="0.170303" stroke-linecap="round" stroke-linejoin="round"/>
<path d="M72.2928 116.35H55.8754H39.4658H72.2928Z" stroke="#263238" stroke-width="0.170303" stroke-linecap="round" stroke-linejoin="round"/>
<path d="M72.2927 116.35H79.9781V112.387V98.8628V82.094V82.0901V58.7367V15.606" stroke="#263238" stroke-width="0.170303" stroke-linecap="round" stroke-linejoin="round"/>
<path d="M34.0011 70.373C33.8633 70.4212 33.7184 70.446 33.5725 70.4464H16.2514C16.1054 70.4463 15.9605 70.4214 15.8228 70.373H34.0011Z" stroke="#263238" stroke-width="0.170303" stroke-linecap="round" stroke-linejoin="round"/>
<path d="M39.1838 73.999H11.7366V118.937H39.1838V73.999Z" stroke="#263238" stroke-width="0.170303" stroke-linecap="round" stroke-linejoin="round"/>
<path d="M40.4853 70.373V73.9995H10.4893V70.373H15.8227C15.9604 70.4214 16.1053 70.4463 16.2513 70.4464H33.5724C33.7184 70.446 33.8632 70.4212 34.0011 70.373H40.4853Z" fill="#263238" stroke="#263238" stroke-width="0.170303" stroke-linecap="round" stroke-linejoin="round"/>
<path d="M34.0011 70.373C33.8633 70.4212 33.7184 70.446 33.5725 70.4464H16.2514C16.1054 70.4463 15.9605 70.4214 15.8228 70.373H34.0011Z" stroke="#263238" stroke-width="0.170303" stroke-linecap="round" stroke-linejoin="round"/>
<path d="M31.6568 58.204L30.085 67.859H19.7387L18.1592 58.1538C18.2866 58.1538 18.4218 58.1731 18.5454 58.1731H31.6491L31.6568 58.204Z" fill="white" stroke="#263238" stroke-width="0.170303" stroke-linecap="round" stroke-linejoin="round"/>
<path d="M31.4523 50.4219H18.5533C17.6314 50.4219 16.7473 50.7881 16.0955 51.44C15.4437 52.0918 15.0775 52.9759 15.0775 53.8977V54.6701C15.0721 55.5288 15.3849 56.359 15.9553 57.0008C16.5258 57.6426 17.3137 58.0505 18.1671 58.1459C18.2945 58.1459 18.4297 58.1652 18.5533 58.1652H31.657C32.5444 58.1122 33.3783 57.7235 33.9895 57.0779C34.6006 56.4324 34.9431 55.5784 34.9474 54.6894V53.917C34.95 53.4573 34.8613 53.0017 34.6866 52.5765C34.5118 52.1513 34.2545 51.765 33.9294 51.4399C33.6044 51.1148 33.2181 50.8575 32.7928 50.6828C32.3676 50.508 31.912 50.4194 31.4523 50.4219ZM29.1081 53.2064C29.3264 53.2072 29.5395 53.2726 29.7207 53.3944C29.9018 53.5163 30.0428 53.689 30.1258 53.8909C30.2088 54.0928 30.2301 54.3148 30.187 54.5288C30.144 54.7428 30.0385 54.9392 29.8839 55.0933C29.7292 55.2474 29.5324 55.3522 29.3183 55.3945C29.1041 55.4368 28.8822 55.4147 28.6806 55.331C28.479 55.2473 28.3068 55.1057 28.1856 54.9242C28.0644 54.7426 27.9997 54.5292 27.9997 54.311C28.0007 54.0177 28.1179 53.7367 28.3257 53.5297C28.5334 53.3227 28.8148 53.2064 29.1081 53.2064ZM24.3655 52.434C24.4406 52.4145 24.5167 52.399 24.5934 52.3877C24.5934 52.3109 24.6239 52.2372 24.6782 52.1829C24.7326 52.1285 24.8062 52.098 24.8831 52.098C24.9599 52.098 25.0335 52.1285 25.0879 52.1829C25.1422 52.2372 25.1727 52.3109 25.1727 52.3877C25.6848 52.4225 26.1622 52.6593 26.4997 53.0461C26.8372 53.4329 27.0072 53.9379 26.9724 54.45C26.9376 54.9621 26.7007 55.4394 26.314 55.7769C25.9272 56.1145 25.4222 56.2845 24.9101 56.2497C24.7257 56.2517 24.5421 56.2256 24.3655 56.1724C23.9548 56.0625 23.5919 55.8201 23.333 55.4828C23.0741 55.1456 22.9338 54.7323 22.9338 54.3071C22.9338 53.8819 23.0741 53.4686 23.333 53.1314C23.5919 52.7941 23.9548 52.5517 24.3655 52.4417V52.434ZM17.0278 54.2955C17.0278 54.0769 17.0926 53.8632 17.2142 53.6815C17.3357 53.4997 17.5085 53.3582 17.7105 53.2747C17.9126 53.1912 18.1348 53.1696 18.3492 53.2125C18.5636 53.2554 18.7604 53.361 18.9147 53.5159C19.069 53.6707 19.1739 53.8679 19.2161 54.0824C19.2582 54.2969 19.2358 54.5191 19.1516 54.7209C19.0674 54.9226 18.9253 55.0949 18.7431 55.2158C18.561 55.3367 18.3471 55.4008 18.1284 55.4C17.8362 55.4031 17.5546 55.2902 17.3454 55.0861C17.1361 54.882 17.0164 54.6032 17.0123 54.311L17.0278 54.2955ZM31.9196 55.4C31.7013 55.3993 31.4881 55.3338 31.307 55.212C31.1259 55.0902 30.9849 54.9174 30.9019 54.7155C30.8189 54.5136 30.7976 54.2917 30.8406 54.0777C30.8837 53.8637 30.9892 53.6672 31.1438 53.5131C31.2984 53.359 31.4953 53.2542 31.7094 53.2119C31.9236 53.1696 32.1454 53.1917 32.347 53.2754C32.5486 53.3591 32.7209 53.5007 32.8421 53.6823C32.9633 53.8638 33.028 54.0772 33.028 54.2955C33.0301 54.4435 33.0024 54.5904 32.9466 54.7275C32.8909 54.8645 32.8081 54.989 32.7033 55.0935C32.5984 55.198 32.4737 55.2803 32.3364 55.3356C32.1991 55.3909 32.0521 55.4181 31.9042 55.4155L31.9196 55.4Z" fill="#263238" stroke="#263238" stroke-width="0.170303" stroke-linecap="round" stroke-linejoin="round"/>
<path d="M19.2135 54.3106C19.2135 54.5289 19.1488 54.7423 19.0276 54.9238C18.9064 55.1054 18.7341 55.247 18.5325 55.3307C18.3309 55.4144 18.109 55.4365 17.8949 55.3942C17.6807 55.3519 17.4839 55.2471 17.3293 55.093C17.1746 54.9389 17.0691 54.7424 17.0261 54.5284C16.983 54.3144 17.0044 54.0925 17.0874 53.8906C17.1704 53.6887 17.3113 53.5159 17.4925 53.3941C17.6736 53.2723 17.8868 53.2068 18.1051 53.2061C18.2504 53.2056 18.3945 53.2337 18.5289 53.289C18.6634 53.3443 18.7856 53.4256 18.8886 53.5282C18.9916 53.6308 19.0733 53.7528 19.129 53.887C19.1848 54.0213 19.2135 54.1652 19.2135 54.3106Z" fill="white" stroke="#263238" stroke-width="0.170303" stroke-linecap="round" stroke-linejoin="round"/>
<path d="M26.8526 54.3145C26.8526 54.8266 26.6492 55.3178 26.287 55.6799C25.9249 56.042 25.4337 56.2455 24.9216 56.2455C24.7372 56.2475 24.5536 56.2214 24.3771 56.1682C23.9663 56.0583 23.6034 55.8159 23.3445 55.4786C23.0856 55.1414 22.9453 54.7281 22.9453 54.3029C22.9453 53.8777 23.0856 53.4644 23.3445 53.1272C23.6034 52.7899 23.9663 52.5475 24.3771 52.4376C24.4521 52.418 24.5282 52.4026 24.6049 52.3912C24.6049 52.3144 24.6354 52.2407 24.6898 52.1864C24.7441 52.1321 24.8178 52.1016 24.8946 52.1016C24.9714 52.1016 25.0451 52.1321 25.0994 52.1864C25.1537 52.2407 25.1842 52.3144 25.1842 52.3912C25.6483 52.4549 26.0734 52.6851 26.3803 53.0389C26.6872 53.3928 26.8551 53.8461 26.8526 54.3145Z" stroke="#263238" stroke-width="0.170303" stroke-linecap="round" stroke-linejoin="round"/>
<path d="M30.2163 54.3106C30.2171 54.53 30.1527 54.7446 30.0314 54.9274C29.91 55.1102 29.7372 55.2529 29.5347 55.3374C29.3323 55.4218 29.1093 55.4443 28.894 55.402C28.6788 55.3597 28.4809 55.2544 28.3255 55.0996C28.1701 54.9447 28.0642 54.7472 28.0211 54.5321C27.978 54.317 27.9997 54.0939 28.0835 53.8912C28.1673 53.6884 28.3094 53.5151 28.4917 53.3931C28.6741 53.2712 28.8885 53.2061 29.1079 53.2061C29.4012 53.2061 29.6825 53.3223 29.8903 53.5293C30.098 53.7364 30.2153 54.0173 30.2163 54.3106Z" stroke="#263238" stroke-width="0.170303" stroke-linecap="round" stroke-linejoin="round"/>
<path d="M33.0124 54.3106C33.0132 54.53 32.9488 54.7446 32.8275 54.9274C32.7062 55.1102 32.5334 55.2529 32.3309 55.3374C32.1284 55.4218 31.9054 55.4443 31.6902 55.402C31.4749 55.3597 31.2771 55.2544 31.1217 55.0996C30.9663 54.9447 30.8603 54.7472 30.8172 54.5321C30.7742 54.317 30.7959 54.0939 30.8797 53.8912C30.9634 53.6884 31.1055 53.5151 31.2879 53.3931C31.4702 53.2712 31.6847 53.2061 31.904 53.2061C32.1973 53.2061 32.4787 53.3223 32.6864 53.5293C32.8942 53.7364 33.0114 54.0173 33.0124 54.3106Z" fill="white" stroke="#263238" stroke-width="0.170303" stroke-linecap="round" stroke-linejoin="round"/>
<path d="M26.7676 60.7329H23.0408V62.8686H26.7676V60.7329Z" fill="#263238" stroke="#263238" stroke-width="0.170303" stroke-linecap="round" stroke-linejoin="round"/>
<path d="M34.8546 69.164C34.85 69.5054 34.7113 69.8314 34.4684 70.0715C34.3314 70.204 34.1683 70.3065 33.9896 70.3728C33.8517 70.4209 33.7068 70.4457 33.5609 70.4462H16.2514C16.1054 70.446 15.9605 70.4212 15.8227 70.3728C15.5727 70.2847 15.3562 70.121 15.2033 69.9044C15.0504 69.6879 14.9686 69.4291 14.9692 69.164C14.9692 68.8236 15.1042 68.497 15.3445 68.256C15.5849 68.0149 15.911 67.879 16.2514 67.8779H33.5725C33.7412 67.8779 33.9082 67.9112 34.064 67.9759C34.2198 68.0406 34.3614 68.1354 34.4805 68.2548C34.5996 68.3743 34.6939 68.5161 34.7581 68.6721C34.8224 68.8281 34.8551 68.9953 34.8546 69.164Z" fill="#5C5C5C" stroke="#263238" stroke-width="0.170303" stroke-linecap="round" stroke-linejoin="round"/>
<path d="M26.8526 54.3146C26.8526 54.8267 26.6492 55.3179 26.287 55.68C25.9249 56.0422 25.4337 56.2456 24.9216 56.2456C24.7372 56.2476 24.5536 56.2216 24.3771 56.1684C23.9663 56.0584 23.6034 55.816 23.3445 55.4788C23.0856 55.1415 22.9453 54.7282 22.9453 54.303C22.9453 53.8778 23.0856 53.4646 23.3445 53.1273C23.6034 52.79 23.9663 52.5476 24.3771 52.4377C24.4521 52.4182 24.5282 52.4027 24.6049 52.3913C24.7094 52.3726 24.8154 52.3636 24.9216 52.3643C25.0095 52.3648 25.0972 52.3713 25.1842 52.3836C25.6496 52.4475 26.0757 52.6788 26.3828 53.0342C26.69 53.3897 26.857 53.8449 26.8526 54.3146Z" fill="white" stroke="#263238" stroke-width="0.170303" stroke-linecap="round" stroke-linejoin="round"/>
<path d="M27.9727 58.2075H21.7588V60.6946H27.9727V58.2075Z" fill="white" stroke="#263238" stroke-width="0.170303" stroke-linecap="round" stroke-linejoin="round"/>
<path d="M29.9036 61.4668H26.7947V62.4362H29.9036V61.4668Z" fill="#263238" stroke="#263238" stroke-width="0.170303" stroke-linecap="round" stroke-linejoin="round"/>
<path d="M29.108 53.2061C28.8897 53.2068 28.6765 53.2722 28.4954 53.3941C28.3143 53.5159 28.1733 53.6887 28.0903 53.8906C28.0073 54.0925 27.986 54.3144 28.029 54.5284C28.0721 54.7424 28.1776 54.9389 28.3322 55.093C28.4868 55.247 28.6836 55.3519 28.8978 55.3942C29.1119 55.4365 29.3338 55.4144 29.5354 55.3307C29.737 55.247 29.9093 55.1054 30.0305 54.9238C30.1517 54.7423 30.2164 54.5289 30.2164 54.3106C30.2154 54.0173 30.0981 53.7364 29.8904 53.5293C29.6826 53.3223 29.4013 53.2061 29.108 53.2061Z" fill="white" stroke="#263238" stroke-width="0.170303" stroke-linecap="round" stroke-linejoin="round"/>
<path d="M25.1764 52.4103V53.3835C25.1754 53.4607 25.144 53.5343 25.0891 53.5885C25.0342 53.6427 24.9601 53.6731 24.8829 53.6731C24.8061 53.6731 24.7324 53.6426 24.6781 53.5883C24.6238 53.534 24.5933 53.4603 24.5933 53.3835V52.4103C24.5933 52.3334 24.6238 52.2598 24.6781 52.2054C24.7324 52.1511 24.8061 52.1206 24.8829 52.1206C24.9597 52.1206 25.0334 52.1511 25.0877 52.2054C25.142 52.2598 25.1726 52.3334 25.1726 52.4103C25.1738 52.4102 25.1751 52.4102 25.1764 52.4103Z" fill="white" stroke="#263238" stroke-width="0.170303" stroke-linecap="round" stroke-linejoin="round"/>
<path d="M37.4653 116.35H13.521V75.7178H37.4653V116.35Z" stroke="#263238" stroke-width="0.170303" stroke-linecap="round" stroke-linejoin="round"/>
<path d="M34.9239 91.1812H33.0779V96.8312H34.9239V91.1812Z" stroke="#263238" stroke-width="0.170303" stroke-linecap="round" stroke-linejoin="round"/>
<path d="M116.3 132.543L115.072 147.968C110.639 149.346 105.892 149.346 101.459 147.968L100.242 132.543H116.3Z" fill="white" stroke="#263238" stroke-width="0.170303" stroke-linecap="round" stroke-linejoin="round"/>
<path d="M108.267 133.575C112.706 133.575 116.304 133.113 116.304 132.543C116.304 131.974 112.706 131.512 108.267 131.512C103.829 131.512 100.23 131.974 100.23 132.543C100.23 133.113 103.829 133.575 108.267 133.575Z" fill="#263238" stroke="#263238" stroke-width="0.170303" stroke-linecap="round" stroke-linejoin="round"/>
<path d="M108.847 100.299C108.196 99.1647 107.298 98.1907 106.22 97.4493C105.139 96.5705 103.895 95.9143 102.559 95.5183C101.057 95.1321 99.2147 95.051 99.3731 95.7345C99.4879 96.4272 99.5601 97.1263 99.5893 97.8278C99.7813 99.4528 100.439 100.988 101.482 102.249C102.525 103.509 103.911 104.442 105.471 104.934C106.092 105.144 106.755 105.198 107.402 105.092C109.584 104.633 109.681 101.933 108.847 100.299Z" fill="#875AFF"/>
<path d="M105.475 128.067C104.523 127.639 103.487 127.429 102.444 127.453C101.355 127.396 100.266 127.559 99.242 127.932C98.122 128.387 96.9518 129.202 97.3843 129.573C97.795 129.967 98.1819 130.385 98.5429 130.824C100.346 132.755 103.289 133.528 105.668 132.651C106.154 132.498 106.592 132.221 106.939 131.848C108.074 130.519 106.792 128.731 105.475 128.067Z" fill="#875AFF"/>
<path d="M116.59 97.2946C116.895 96.0214 116.865 94.6912 116.505 93.4326C116.249 92.1231 115.673 90.8972 114.829 89.8642C113.84 88.7558 112.33 87.7517 111.948 88.4391C111.517 89.1201 111.051 89.7776 110.55 90.4087C108.383 93.4635 108.233 97.3024 110.214 99.7084C110.599 100.227 111.13 100.62 111.739 100.836C113.96 101.531 116.072 99.1677 116.59 97.2946Z" fill="#875AFF"/>
<path d="M116.617 107.521C117.899 107.257 119.105 106.705 120.143 105.907C121.31 105.15 122.315 104.169 123.101 103.022C123.935 101.713 124.58 99.9901 123.873 99.9322C123.18 99.8266 122.494 99.677 121.819 99.4842C120.217 99.1648 118.556 99.3157 117.038 99.9187C115.519 100.522 114.207 101.551 113.261 102.883C112.86 103.406 112.594 104.02 112.488 104.671C112.288 106.895 114.809 107.811 116.617 107.521Z" fill="#875AFF"/>
<path d="M106.981 107.197C106.069 106.258 104.958 105.535 103.729 105.08C102.464 104.504 101.098 104.181 99.7091 104.13C98.1643 104.13 96.3569 104.517 96.6774 105.127C96.9587 105.769 97.1999 106.428 97.3996 107.1C97.9882 108.624 99.005 109.946 100.327 110.905C101.65 111.864 103.222 112.421 104.853 112.507C105.507 112.557 106.163 112.447 106.765 112.186C108.777 111.202 108.19 108.568 106.981 107.197Z" fill="#875AFF"/>
<path d="M114.779 118.787C116.069 118.59 117.185 117.844 118.32 117.199C121.935 115.141 122.657 111.352 124.055 110.68C123.561 111.178 120.734 110.939 120.05 110.788C118.451 110.456 116.789 110.594 115.266 111.184C113.742 111.775 112.422 112.794 111.465 114.117C111.065 114.638 110.799 115.25 110.693 115.898C110.438 118.126 112.971 119.061 114.779 118.787Z" fill="#875AFF"/>
<path d="M105.236 120.594C104.104 119.937 102.84 119.541 101.536 119.435C100.162 119.22 98.7599 119.275 97.4074 119.598C95.9128 120.011 94.2792 120.864 94.7542 121.374C95.1989 121.917 95.6091 122.487 95.9823 123.081C96.9604 124.389 98.2948 125.387 99.8256 125.957C101.356 126.526 103.019 126.642 104.614 126.29C105.257 126.162 105.86 125.879 106.371 125.468C108.039 123.969 106.769 121.59 105.236 120.594Z" fill="#875AFF"/>
<path d="M112.624 127.02C113.646 126.808 114.606 126.368 115.435 125.734C116.354 125.143 117.142 124.37 117.752 123.463C118.39 122.436 118.861 121.088 118.289 121.046C117.724 120.971 117.165 120.861 116.613 120.717C114.01 120.208 111.187 121.328 109.774 123.421C109.472 123.832 109.28 124.313 109.217 124.819C109.082 126.561 111.172 127.26 112.624 127.02Z" fill="#875AFF"/>
<path d="M114.651 130.605C115.344 130.252 115.95 129.75 116.424 129.133C116.973 128.523 117.395 127.808 117.664 127.032C117.938 126.159 118.03 125.078 117.617 125.151C117.201 125.202 116.781 125.225 116.362 125.221C115.394 125.288 114.466 125.632 113.688 126.212C112.91 126.792 112.315 127.583 111.975 128.492C111.831 128.851 111.78 129.24 111.828 129.624C112.044 130.929 113.655 131.053 114.651 130.605Z" fill="#875AFF"/>
<path d="M102.633 98.2679C105.283 100.818 107.75 103.551 110.017 106.448C112.121 103.563 113.295 100.104 113.38 96.5338C113.369 94.2688 113.089 92.0131 112.546 89.814" stroke="#5C5C5C" stroke-width="0.170303" stroke-linecap="round" stroke-linejoin="round"/>
<path d="M110.21 106.78C110.342 106.753 110.472 106.713 110.596 106.66C112.021 106.085 113.083 105.664 114.539 105.166C117.687 104.088 123.333 100.404 123.333 100.404" stroke="#5C5C5C" stroke-width="0.170303" stroke-linecap="round" stroke-linejoin="round"/>
<path d="M98.2068 105.594C99.5585 107.317 101.613 108.719 107.383 110.325C109.615 110.947 109.279 112.847 109.206 112.917" stroke="#5C5C5C" stroke-width="0.170303" stroke-linecap="round" stroke-linejoin="round"/>
<path d="M109.086 115.782C109.681 116.095 111.492 116.454 113.651 115.744C116.126 114.925 119.235 113.04 121.406 112.079" stroke="#5C5C5C" stroke-width="0.170303" stroke-linecap="round" stroke-linejoin="round"/>
<path d="M108.232 125.58C111.171 125.897 113.987 124.248 116.343 122.459" stroke="#5C5C5C" stroke-width="0.170303" stroke-linecap="round" stroke-linejoin="round"/>
<path d="M98.2068 121.973C101.222 123.951 104.663 125.187 108.248 125.58" stroke="#5C5C5C" stroke-width="0.170303" stroke-linecap="round" stroke-linejoin="round"/>
<path d="M100.702 129.766C103.692 130.288 106.739 130.392 109.758 130.075C110.309 130.018 110.857 129.932 111.399 129.816C112.394 129.513 113.345 129.083 114.23 128.538C115.144 128.092 115.977 127.498 116.698 126.781" stroke="#5C5C5C" stroke-width="0.170303" stroke-linecap="round" stroke-linejoin="round"/>
<path d="M110.005 104.547C110.112 106.895 110.006 109.248 109.689 111.576C109.202 115.102 108.233 118.593 108.364 122.146C108.426 123.938 109.345 125.68 109.878 127.673C110.264 129.063 110.542 131.952 110.372 132.392" stroke="#5C5C5C" stroke-width="0.681211" stroke-linecap="round" stroke-linejoin="round"/>
<path d="M50.0169 111.275C50.0169 111.275 50.0169 111.607 50.0169 112.206C49.0687 112.071 48.1443 111.803 47.271 111.41V111.275C49.0166 107.436 50.0169 111.275 50.0169 111.275Z" fill="white" stroke="#263238" stroke-width="0.170303" stroke-linecap="round" stroke-linejoin="round"/>
<path d="M90.0694 111.275V111.314C89.942 111.379 89.8107 111.437 89.6833 111.495C89.5558 111.553 89.4863 111.58 89.3859 111.619L89.2005 111.688L89.0113 111.754L88.6251 111.877L88.32 111.962L87.9994 112.04C87.8913 112.067 87.7832 112.09 87.6712 112.109L87.3313 112.171V111.275C87.4742 110.953 87.6421 110.643 87.8334 110.348C89.2584 108.162 90.0694 111.275 90.0694 111.275Z" fill="white" stroke="#263238" stroke-width="0.170303" stroke-linecap="round" stroke-linejoin="round"/>
<path d="M53.3689 72.9559L53.8439 104.238C53.8439 104.238 53.647 106.123 55.0025 105.949C55.3578 105.903 55.6591 105.949 55.7402 101.241C55.8869 92.8027 56.1264 72.9521 56.1264 72.9521C56.1264 72.9521 55.13 69.121 53.3689 72.9559Z" fill="white" stroke="#263238" stroke-width="0.170303" stroke-linecap="round" stroke-linejoin="round"/>
<path d="M81.3916 72.9559L81.8666 104.238C81.8666 104.238 81.6658 106.123 83.0252 105.949C83.3844 105.903 83.6856 105.949 83.7667 101.241C83.9096 92.8027 84.1529 72.9521 84.1529 72.9521C84.1529 72.9521 83.1681 69.121 81.3916 72.9559Z" fill="white" stroke="#263238" stroke-width="0.170303" stroke-linecap="round" stroke-linejoin="round"/>
<path d="M87.1846 102.466C87.1846 102.466 87.1421 105.814 87.0881 110.348C87.0881 110.955 87.0688 111.58 87.061 112.221L86.7405 112.264L86.4122 112.302C86.1882 112.326 85.9604 112.341 85.7287 112.356C85.4004 112.356 85.0567 112.387 84.7091 112.387H84.5701L84.4194 102.466C86.1651 98.6271 87.1846 102.466 87.1846 102.466Z" fill="white" stroke="#263238" stroke-width="0.170303" stroke-linecap="round" stroke-linejoin="round"/>
<path d="M52.8707 102.466C52.8707 102.466 52.8128 106.865 52.751 112.387H52.4459C51.7136 112.389 50.982 112.341 50.2561 112.244L50.1094 102.466C51.8743 98.6271 52.8707 102.466 52.8707 102.466Z" fill="white" stroke="#263238" stroke-width="0.170303" stroke-linecap="round" stroke-linejoin="round"/>
<path d="M56.5398 110.348H53.6394V112.387H56.5398V110.348Z" fill="white" stroke="#263238" stroke-width="0.170303" stroke-linecap="round" stroke-linejoin="round"/>
<path d="M83.2414 112.387V142.395C83.2414 142.779 83.0888 143.147 82.8172 143.419C82.5456 143.691 82.1773 143.843 81.7932 143.843C81.6027 143.844 81.4139 143.807 81.2378 143.734C81.0616 143.661 80.9015 143.555 80.7666 143.42C80.6317 143.286 80.5247 143.126 80.4517 142.95C80.3787 142.774 80.3411 142.585 80.3411 142.395V112.387H83.2414Z" fill="white" stroke="#263238" stroke-width="0.170303" stroke-linecap="round" stroke-linejoin="round"/>
<path d="M83.2414 110.348H80.3411V112.387H83.2414V110.348Z" fill="white" stroke="#263238" stroke-width="0.170303" stroke-linecap="round" stroke-linejoin="round"/>
<path d="M49.9319 148.713C49.7414 148.713 49.5527 148.675 49.3768 148.602C49.2008 148.529 49.041 148.422 48.9065 148.288C48.7719 148.153 48.6653 147.993 48.5928 147.816C48.5202 147.64 48.4831 147.451 48.4836 147.261V110.34H51.3801V147.261C51.3806 147.451 51.3436 147.64 51.271 147.816C51.1985 147.993 51.0919 148.153 50.9573 148.288C50.8228 148.422 50.663 148.529 50.487 148.602C50.311 148.675 50.1224 148.713 49.9319 148.713Z" fill="white" stroke="#263238" stroke-width="0.170303" stroke-linecap="round" stroke-linejoin="round"/>
<path d="M88.6096 111.885V147.261C88.6101 147.452 88.573 147.64 88.5005 147.817C88.4279 147.993 88.3213 148.153 88.1868 148.288C88.0522 148.423 87.8924 148.53 87.7165 148.603C87.5405 148.676 87.3519 148.713 87.1613 148.713C86.7762 148.713 86.4069 148.56 86.1345 148.288C85.8622 148.016 85.7092 147.646 85.7092 147.261V112.356C85.9409 112.356 86.1688 112.326 86.3928 112.302L86.7211 112.264L87.0416 112.221C87.1343 112.221 87.227 112.194 87.3158 112.171L87.6557 112.109C87.7677 112.09 87.8758 112.067 87.9839 112.04C88.0921 112.013 88.2002 111.993 88.3045 111.962C88.4088 111.932 88.5092 111.908 88.6096 111.885Z" fill="white" stroke="#263238" stroke-width="0.170303" stroke-linecap="round" stroke-linejoin="round"/>
<path d="M88.6096 110.34V111.885L88.3045 111.97L87.9839 112.047C87.8758 112.074 87.7677 112.098 87.6557 112.117L87.3158 112.179C87.227 112.202 87.1343 112.213 87.0416 112.229L86.7211 112.271L86.3928 112.31C86.1688 112.333 85.9409 112.349 85.7092 112.364V110.34H88.6096Z" fill="white" stroke="#263238" stroke-width="0.170303" stroke-linecap="round" stroke-linejoin="round"/>
<path d="M90.0695 111.314C89.9421 111.379 89.8108 111.437 89.6833 111.495C89.5559 111.553 89.4864 111.58 89.386 111.619L89.2006 111.688L89.0114 111.754L88.6252 111.877L88.3201 111.962L87.9995 112.04C87.8914 112.067 87.7832 112.09 87.6713 112.109L87.3314 112.171C87.2426 112.194 87.1499 112.206 87.0572 112.221L86.7366 112.264L86.4084 112.302C86.1844 112.325 85.9565 112.341 85.7248 112.356C85.3965 112.356 85.0528 112.387 84.7052 112.387H52.446C52.0778 112.387 51.7225 112.376 51.3801 112.353C50.9939 112.329 50.6077 112.295 50.2563 112.244L50.0052 112.206L49.6538 112.148H49.5997C49.4684 112.125 49.341 112.098 49.2135 112.067L49.0745 112.036C48.8814 111.993 48.6883 111.943 48.5222 111.893H48.4798L48.3793 111.862L48.3137 111.839L48.1553 111.789L48.0395 111.75C47.8889 111.696 47.7421 111.642 47.6031 111.584C47.464 111.526 47.3714 111.487 47.2594 111.433C44.8765 110.317 44.0076 108.382 45.2241 106.366L47.4332 102.705C48.3871 101.118 50.8858 99.8474 53.7668 99.2526C54.4333 99.112 55.1079 99.0126 55.7866 98.9553C56.2926 98.9089 56.8023 98.8857 57.3121 98.8857H79.816C80.4768 98.8856 81.137 98.9243 81.7933 99.0016C82.472 99.0763 83.1453 99.1937 83.8093 99.353C86.5127 99.9825 88.7874 101.203 89.6949 102.705L91.9001 106.366C93.0896 108.305 92.3056 110.186 90.0695 111.314Z" fill="#263238" stroke="#263238" stroke-width="0.170303" stroke-linecap="round" stroke-linejoin="round"/>
<path d="M78.2905 58.7363H58.1734C53.3274 58.7363 49.3989 62.6648 49.3989 67.5108V73.3192C49.3989 78.1652 53.3274 82.0937 58.1734 82.0937H78.2905C83.1365 82.0937 87.0649 78.1652 87.0649 73.3192V67.5108C87.0649 62.6648 83.1365 58.7363 78.2905 58.7363Z" fill="#263238" stroke="#263238" stroke-width="0.170303" stroke-linecap="round" stroke-linejoin="round"/>
<path d="M56.5398 112.387V142.395C56.5398 142.779 56.3872 143.147 56.1156 143.419C55.844 143.691 55.4756 143.843 55.0915 143.843C54.901 143.844 54.7123 143.807 54.5361 143.734C54.36 143.661 54.1998 143.555 54.065 143.42C53.9301 143.286 53.823 143.126 53.75 142.95C53.677 142.774 53.6394 142.585 53.6394 142.395V112.387H56.5398Z" fill="white" stroke="#263238" stroke-width="0.170303" stroke-linecap="round" stroke-linejoin="round"/>
<path d="M85.7208 106.81C84.9948 108.923 83.2492 109.128 81.0864 109.703C79.5416 110.089 77.966 110.475 76.3825 110.78C71.6537 111.639 66.805 111.593 62.0932 110.645C59.0538 110.035 57.1846 106.961 56.1998 104.026C55.2754 101.247 54.8824 98.3187 55.0412 95.3943C56.8543 96.4763 58.9825 96.9068 61.0736 96.6147C64.2366 96.2053 67.0906 94.591 69.9292 93.1389C70.2513 92.9422 70.618 92.8306 70.9951 92.8145C71.245 92.84 71.489 92.9065 71.7173 93.0114C75.4364 94.506 79.5301 96.1203 83.3612 95.514C83.4847 96.0778 83.6006 96.6919 83.7087 97.3871C84.037 99.5343 84.9677 101.11 85.5586 102.987C85.995 104.346 86.1881 105.443 85.7208 106.81Z" fill="#263238" stroke="#263238" stroke-width="0.170303" stroke-linecap="round" stroke-linejoin="round"/>
<path d="M88.6869 80.356C88.6869 82.453 87.7561 84.1755 87.3661 85.2646C86.7212 84.0359 85.7948 82.9772 84.6627 82.175C83.5041 81.4682 82.836 80.8078 81.4804 80.7113C80.5651 80.6495 79.2211 81.3099 78.6959 81.4219C79.1555 80.5105 79.8815 79.5913 81.519 78.1122C81.3414 75.6019 81.2178 74.9492 80.3604 72.2381C79.0357 75.2388 78.7693 81.1593 78.6959 81.4219C78.5144 82.0514 78.9585 83.3529 79.5146 84.5115C81.1456 88.0613 82.4386 91.7568 83.3766 95.5491C79.5455 96.1554 75.4518 94.5411 71.7327 93.0465C71.5044 92.9416 71.2604 92.875 71.0105 92.8495C70.6335 92.8657 70.2667 92.9773 69.9446 93.1739C67.1061 94.6183 64.252 96.2326 61.0891 96.6497C58.998 96.9419 56.8698 96.5114 55.0566 95.4293C55.2922 91.1348 56.7212 86.9329 59.4246 83.6734C59.4246 83.6734 59.6022 80.522 59.6022 79.8114C59.6022 72.941 57.7832 63.2821 57.5862 62.0077C57.3893 60.7332 56.6169 58.7868 55.6553 58.7868C58.5402 57.744 63.3792 56.1181 65.5922 54.2682C65.6346 54.3725 65.6771 54.4652 65.7196 54.5656C66.0435 55.4156 66.4524 56.2308 66.94 56.9987C67.9132 58.4353 67.9248 58.4778 67.9016 59.0764C67.8697 59.3321 67.8048 59.5827 67.7085 59.8218C67.6623 60.1988 67.6623 60.5801 67.7085 60.9572C67.9634 64.4639 69.6781 74.5437 71.4083 76.8107C73.4127 71.6626 74.216 65.8774 73.3625 60.4088L73.2814 59.9415C73.208 59.5089 72.0378 58.7597 72.5901 57.1724C72.9068 56.261 73.0883 55.6006 73.2157 55.1024C73.432 54.2605 73.4938 53.882 73.7834 53.5576C74.598 54.031 75.3729 54.5696 76.1006 55.1681C76.1663 55.3187 76.6066 55.4616 76.5139 55.3341C77.6068 55.983 78.9431 55.9868 80.2021 56.1876C82.0442 56.4811 83.3226 57.6436 84.7978 58.779C87.3159 70.253 88.6869 80.356 88.6869 80.356Z" fill="#875AFF"/>
<mask id="mask0_288_50603" style="mask-type:luminance" maskUnits="userSpaceOnUse" x="55" y="53" width="34" height="44">
<path d="M88.6869 80.356C88.6869 82.453 87.7561 84.1755 87.3661 85.2646C86.7212 84.0359 85.7948 82.9772 84.6627 82.175C83.5041 81.4682 82.836 80.8078 81.4804 80.7113C80.5651 80.6495 79.2211 81.3099 78.6959 81.4219C79.1555 80.5105 79.8815 79.5913 81.519 78.1122C81.3414 75.6019 81.2178 74.9492 80.3604 72.2381C79.0357 75.2388 78.7693 81.1593 78.6959 81.4219C78.5144 82.0514 78.9585 83.3529 79.5146 84.5115C81.1456 88.0613 82.4386 91.7568 83.3766 95.5491C79.5455 96.1554 75.4518 94.5411 71.7327 93.0465C71.5044 92.9416 71.2604 92.875 71.0105 92.8495C70.6335 92.8657 70.2667 92.9773 69.9446 93.1739C67.1061 94.6183 64.252 96.2326 61.0891 96.6497C58.998 96.9419 56.8698 96.5114 55.0566 95.4293C55.2922 91.1348 56.7212 86.9329 59.4246 83.6734C59.4246 83.6734 59.6022 80.522 59.6022 79.8114C59.6022 72.941 57.7832 63.2821 57.5862 62.0077C57.3893 60.7332 56.6169 58.7868 55.6553 58.7868C58.5402 57.744 63.3792 56.1181 65.5922 54.2682C65.6346 54.3725 65.6771 54.4652 65.7196 54.5656C66.0435 55.4156 66.4524 56.2308 66.94 56.9987C67.9132 58.4353 67.9248 58.4778 67.9016 59.0764C67.8697 59.3321 67.8048 59.5827 67.7085 59.8218C67.6623 60.1988 67.6623 60.5801 67.7085 60.9572C67.9634 64.4639 69.6781 74.5437 71.4083 76.8107C73.4127 71.6626 74.216 65.8774 73.3625 60.4088L73.2814 59.9415C73.208 59.5089 72.0378 58.7597 72.5901 57.1724C72.9068 56.261 73.0883 55.6006 73.2157 55.1024C73.432 54.2605 73.4938 53.882 73.7834 53.5576C74.598 54.031 75.3729 54.5696 76.1006 55.1681C76.1663 55.3187 76.6066 55.4616 76.5139 55.3341C77.6068 55.983 78.9431 55.9868 80.2021 56.1876C82.0442 56.4811 83.3226 57.6436 84.7978 58.779C87.3159 70.253 88.6869 80.356 88.6869 80.356Z" fill="white"/>
</mask>
<g mask="url(#mask0_288_50603)">
<path opacity="0.2" d="M72.2774 64.6301C71.8672 65.6273 71.1913 66.4929 70.3232 67.1326C70.7434 67.3616 71.2298 67.4382 71.6999 67.3495C72.1701 67.2608 72.5952 67.0123 72.903 66.646C72.8642 66.9555 72.7601 67.2533 72.5976 67.5195C72.4352 67.7858 72.2181 68.0146 71.9607 68.1908C73.0312 68.2459 74.09 67.9466 74.9731 67.3392C75.8563 66.7318 76.5146 65.8502 76.8462 64.8309C77.0339 64.0951 77.1299 63.3388 77.1319 62.5794C77.1857 61.9448 77.1559 61.306 77.0431 60.6793C76.9229 60.0467 76.565 59.4842 76.0429 59.1074C75.8988 59.0025 75.7266 58.9433 75.5485 58.9375C75.1816 58.9375 74.9074 59.2735 74.6989 59.5786C73.9386 60.6823 73.2671 61.8445 72.6906 63.0544C72.5478 63.3633 72.4049 63.6723 72.2658 63.9851V64.0199L72.2774 64.6301Z" fill="black"/>
<path opacity="0.2" d="M64.086 65.6069C65.4802 63.3553 65.9977 60.6828 66.4843 58.0798C66.6349 57.2804 66.6774 56.2454 65.9514 55.8824C65.6955 55.7831 65.4149 55.767 65.1493 55.8363C64.8838 55.9056 64.6469 56.0569 64.4722 56.2686C64.1248 56.6976 63.8626 57.1892 63.6998 57.7168C63.2592 58.8722 62.7271 59.9905 62.1087 61.0613C60.6295 63.6295 58.6329 66.0085 58.0652 68.9166C57.8913 69.5957 57.9249 70.3114 58.1617 70.9712C58.3626 71.4385 59.1079 72.2765 59.7065 71.9791C60.0387 71.8131 60.618 70.1795 60.8651 69.8126C61.8731 68.3566 63.1553 67.113 64.086 65.6069Z" fill="black"/>
<path opacity="0.2" d="M65.3412 82.9201C65.8011 82.3739 66.3062 81.8675 66.8512 81.4062C67.2387 81.1442 67.6514 80.9217 68.0832 80.7419L70.9295 79.4482C73.1231 78.4556 75.4364 77.355 76.7225 75.3236C76.8692 75.0996 76.9928 74.7945 76.8306 74.5821C76.6684 74.3697 76.3247 74.4121 76.0582 74.4894C75.5098 74.64 74.9614 74.7945 74.4168 74.9528C71.6555 75.7445 68.9212 76.6251 66.2487 77.6562C65.0129 78.139 63.7153 78.7144 62.9931 79.8305C62.6069 80.406 62.4176 81.1011 61.9465 81.5993C61.4792 81.9993 60.9673 82.344 60.421 82.6266C59.2399 83.4765 58.3498 84.6701 57.8721 86.0445C58.9032 86.338 60.8613 85.4574 61.8654 85.0674C63.1618 84.6035 64.3461 83.8719 65.3412 82.9201Z" fill="black"/>
<path opacity="0.2" d="M84.3268 75.4358C84.2584 75.6935 84.1417 75.9359 83.9831 76.1502C83.8347 76.3085 83.6595 76.4393 83.4656 76.5364C82.8905 76.8455 82.2492 77.0111 81.5964 77.0192C81.3854 76.2929 81.2826 75.5394 81.2913 74.7831C81.7119 74.8636 82.1458 74.8399 82.5551 74.714C82.9645 74.5881 83.3367 74.3639 83.6394 74.0609C84.0603 73.6554 84.3114 72.6242 84.8675 72.5161C84.833 73.5108 84.6507 74.4947 84.3268 75.4358Z" fill="black"/>
</g>
<path d="M78.6959 81.4219C79.2211 81.3099 80.5651 80.6495 81.4804 80.7113C82.836 80.8078 83.5041 81.4682 84.6627 82.175C85.7948 82.9772 86.7212 84.0359 87.3661 85.2646C87.7561 84.1755 88.6869 82.453 88.6869 80.356C88.6869 80.356 87.3159 70.253 84.7978 58.779C83.3226 57.6436 82.0442 56.4811 80.2021 56.1876C78.9431 55.9868 77.6068 55.983 76.5139 55.3341C76.6066 55.4616 76.1663 55.3187 76.1006 55.1681C75.3729 54.5696 74.598 54.031 73.7834 53.5576C73.4938 53.882 73.432 54.2605 73.2157 55.1024C73.0883 55.6006 72.9068 56.261 72.5901 57.1724C72.0378 58.7597 73.208 59.5089 73.2814 59.9415L73.3625 60.4088C74.216 65.8774 73.4127 71.6626 71.4083 76.8107C69.6781 74.5437 67.9634 64.4639 67.7085 60.9572C67.6623 60.5801 67.6623 60.1988 67.7085 59.8218C67.8048 59.5827 67.8697 59.3321 67.9016 59.0764C67.9248 58.4778 67.9132 58.4353 66.94 56.9987C66.4524 56.2308 66.0435 55.4156 65.7196 54.5656C65.6771 54.4652 65.6346 54.3725 65.5922 54.2682C63.3792 56.1181 58.5402 57.744 55.6553 58.7868C56.6169 58.7868 57.3893 60.7332 57.5862 62.0077C57.7832 63.2821 59.6022 72.941 59.6022 79.8114C59.6022 80.522 59.4246 83.6734 59.4246 83.6734C56.7212 86.9329 55.2922 91.1348 55.0566 95.4293C56.8698 96.5114 58.998 96.9419 61.0891 96.6497C64.252 96.2326 67.1061 94.6183 69.9446 93.1739C70.2667 92.9773 70.6335 92.8657 71.0105 92.8495C71.2604 92.875 71.5044 92.9416 71.7327 93.0465C75.4518 94.5411 79.5455 96.1554 83.3766 95.5491C82.4386 91.7568 81.1456 88.0613 79.5146 84.5115C78.9585 83.3529 78.5144 82.0514 78.6959 81.4219ZM78.6959 81.4219C79.1555 80.5105 79.8815 79.5913 81.519 78.1122C81.3414 75.6019 81.2178 74.9492 80.3604 72.2381C79.0357 75.2388 78.7693 81.1593 78.6959 81.4219Z" stroke="#263238" stroke-width="0.170303" stroke-linecap="round" stroke-linejoin="round"/>
<path d="M80.4687 63.873C81.6929 66.9858 80.6502 71.1606 79.8855 73.9953L80.4687 63.873Z" fill="#875AFF"/>
<path d="M80.4687 63.873C81.6929 66.9858 80.6502 71.1606 79.8855 73.9953" stroke="#263238" stroke-width="0.170303" stroke-linecap="round" stroke-linejoin="round"/>
<path d="M82.3919 61.4668C82.3919 65.2824 80.9823 69.9246 79.8855 73.9951" stroke="#263238" stroke-width="0.170303" stroke-linecap="round" stroke-linejoin="round"/>
<path d="M82.8245 77.2585C83.8898 76.833 85.0636 76.7613 86.1728 77.0539L82.8245 77.2585Z" fill="#875AFF"/>
<path d="M82.8245 77.2585C83.8898 76.833 85.0636 76.7613 86.1728 77.0539" stroke="#263238" stroke-width="0.170303" stroke-linecap="round" stroke-linejoin="round"/>
<path d="M82.3918 78.1121C82.9642 77.9217 83.5786 77.8957 84.165 78.037C84.7514 78.1783 85.2864 78.4813 85.7093 78.9115" fill="#875AFF"/>
<path d="M82.3918 78.1121C82.9642 77.9217 83.5786 77.8957 84.165 78.037C84.7514 78.1783 85.2864 78.4813 85.7093 78.9115" stroke="#263238" stroke-width="0.170303" stroke-linecap="round" stroke-linejoin="round"/>
<path d="M66.7893 82.5108C68.7507 82.8075 70.7552 82.6043 72.6171 81.9199" stroke="#263238" stroke-width="0.170303" stroke-linecap="round" stroke-linejoin="round"/>
<path d="M75.2974 83.1984C75.6836 83.0207 76.0698 82.8122 76.456 82.6152" stroke="#263238" stroke-width="0.170303" stroke-linecap="round" stroke-linejoin="round"/>
<path d="M64.6113 83.8742C67.8384 84.849 71.2967 84.7336 74.4517 83.5459" stroke="#263238" stroke-width="0.170303" stroke-linecap="round" stroke-linejoin="round"/>
<path d="M64.4876 86.0874C67.7549 86.7903 71.4122 86.2226 74.5288 87.5163C74.915 87.6747 75.336 87.9836 75.2394 88.3814C75.1429 88.7792 74.6176 88.8449 74.2121 88.8371C69.6859 88.7676 64.8622 89.2504 61.2783 92.0194" stroke="#263238" stroke-width="0.170303" stroke-linecap="round" stroke-linejoin="round"/>
<path d="M62.0815 85.2568C62.5003 85.4702 62.9356 85.6498 63.383 85.7937" stroke="#263238" stroke-width="0.170303" stroke-linecap="round" stroke-linejoin="round"/>
<path d="M71.3969 76.5635C71.366 81.9239 71.3364 87.2844 71.3081 92.6448" stroke="#263238" stroke-width="0.170303" stroke-linecap="round" stroke-linejoin="round"/>
<path d="M85.7209 106.811C85.6641 106.974 85.597 107.134 85.5201 107.289C85.5008 106.934 85.466 106.583 85.4236 106.235C85.4236 106.092 85.3927 105.949 85.3656 105.81C85.3116 105.385 85.2382 104.968 85.1455 104.547C85.1185 104.401 85.0798 104.25 85.0451 104.103C85.0451 104.022 85.0065 103.945 84.9871 103.868C84.9408 103.675 84.8867 103.481 84.8327 103.292C84.7786 103.103 84.7129 102.906 84.6512 102.721C83.7088 99.913 81.9902 97.4915 79.3795 96.051C78.3291 97.8353 77.3018 98.8432 76.2899 99.3569C73.0613 100.971 69.852 97.6769 65.8626 98.2755C65.8626 98.2755 59.0462 99.1561 59.247 105.482C59.3071 106.53 59.6778 107.537 60.3119 108.374C60.946 109.211 61.8148 109.84 62.8077 110.182C62.6687 110.348 62.5297 110.526 62.3868 110.715L62.101 110.665C59.0616 110.055 57.1924 106.98 56.2076 104.045C55.2832 101.266 54.8902 98.3382 55.049 95.4138C56.8621 96.4958 58.9903 96.9264 61.0814 96.6342C64.2444 96.2248 67.0984 94.6105 69.937 93.1584C70.2591 92.9617 70.6258 92.8501 71.0029 92.834C71.2528 92.8595 71.4968 92.9261 71.7251 93.0309C75.4442 94.5255 79.5379 96.1398 83.369 95.5335C83.4926 96.0974 83.6084 96.7114 83.7165 97.4066C84.0448 99.5538 84.9756 101.13 85.5664 103.006C85.9951 104.347 86.1882 105.443 85.7209 106.811Z" fill="white" stroke="#263238" stroke-width="0.170303" stroke-linecap="round" stroke-linejoin="round"/>
<path d="M48.1323 139.788C48.1323 139.788 45.2512 141.152 44.3707 142.557C43.4902 143.963 40.6709 148.814 39.8792 150.575C39.0875 152.336 37.6779 160.967 42.7834 160.616C47.889 160.265 46.8192 154.676 47.9817 152.436C49.1441 150.196 55.7945 138.379 48.1323 139.788Z" fill="#263238" stroke="#263238" stroke-width="0.170303" stroke-linecap="round" stroke-linejoin="round"/>
<path d="M54.2958 140.395C54.2958 140.395 53.3651 140.356 53.0214 143.94C52.6777 147.524 52.0829 147.771 52.1679 148.628C52.2528 149.486 52.2451 151.618 54.5546 152.811C56.8641 154.004 58.3432 155.341 60.7956 150.93C62.0777 148.613 59.6872 141.341 58.8221 140.395C56.5899 137.95 54.2958 140.395 54.2958 140.395Z" fill="#263238" stroke="#263238" stroke-width="0.170303" stroke-linecap="round" stroke-linejoin="round"/>
<path d="M85.4506 111.368C85.3675 112.265 85.1555 113.146 84.8211 113.982C84.6312 114.48 84.3973 114.959 84.1221 115.415C80.9552 120.621 77.5567 123.857 72.8219 127.94C70.3927 130.037 67.8013 131.941 65.4416 134.119C62.7382 136.621 60.1931 139.873 60.3747 143.561C60.4365 144.921 60.7609 147.002 59.1697 147.103C53.033 147.489 53.9213 144.117 54.0835 143.025C54.2457 141.932 54.8173 140.951 55.3772 139.997C57.5979 136.197 59.8224 132.4 62.2168 128.708C65.4879 123.688 69.0757 118.837 72.1344 113.67C73.0961 112.047 74.0152 110.352 74.3512 108.502C74.6872 106.652 74.5443 104.219 73.2583 102.84C73.3239 102.454 74.8031 100.952 76.2783 99.3415C77.3018 98.8279 78.3291 97.8199 79.3679 96.0356C81.9786 97.4955 83.6856 99.8976 84.6396 102.725C84.7013 102.914 84.7631 103.111 84.8211 103.296C84.879 103.482 84.9292 103.682 84.9755 103.872C84.9949 103.949 85.018 104.026 85.0335 104.107C85.0682 104.254 85.1069 104.405 85.1339 104.551C85.2266 104.972 85.3 105.389 85.354 105.814C85.3772 105.953 85.3965 106.1 85.412 106.239C85.4544 106.587 85.4892 106.938 85.5085 107.293C85.599 108.651 85.5796 110.013 85.4506 111.368Z" fill="#5C5C5C" stroke="#263238" stroke-width="0.170303" stroke-linecap="round" stroke-linejoin="round"/>
<path d="M59.2392 105.463C59.3004 106.512 59.6719 107.519 60.3066 108.357C60.9412 109.194 61.8104 109.824 62.8038 110.167C60.251 113.256 57.0881 120.115 55.1223 125.657C53.7011 129.65 51.801 134.594 49.534 137.761C48.0955 139.747 46.7973 141.831 45.6488 143.998C45.336 144.589 45.0464 145.106 44.8262 145.438C43.9457 146.759 42.7292 151.691 45.3708 152.305C48.0124 152.919 52.3224 145.987 53.3303 142.947C53.4708 142.472 53.6411 142.007 53.8401 141.553C54.231 140.868 54.6658 140.209 55.1416 139.58C55.7093 138.703 56.9374 136.587 57.4936 135.718C64.1864 124.989 67.8901 123.398 72.9068 114.755C74.3512 112.268 75.4673 110.244 75.8071 108.915C76.5795 105.969 75.2626 104.625 73.1694 101.983C71.2809 99.5964 68.8671 97.8083 65.8587 98.2834C65.8587 98.2563 59.0461 99.1407 59.2392 105.463Z" fill="#5C5C5C" stroke="#263238" stroke-width="0.170303" stroke-linecap="round" stroke-linejoin="round"/>
<path d="M72.1575 114.249C73.6902 112.699 74.927 110.882 75.8071 108.888" stroke="#263238" stroke-width="0.170303" stroke-linecap="round" stroke-linejoin="round"/>
<path d="M70.3193 115.886C70.7055 115.573 71.1149 115.233 71.5281 114.859" stroke="#263238" stroke-width="0.170303" stroke-linecap="round" stroke-linejoin="round"/>
<path d="M81.5576 116.824C82.1862 116.772 82.7817 116.521 83.2569 116.106C83.7876 115.663 84.2372 115.131 84.5854 114.534" fill="#5C5C5C"/>
<path d="M81.5576 116.824C82.1862 116.772 82.7817 116.521 83.2569 116.106C83.7876 115.663 84.2372 115.131 84.5854 114.534" stroke="#263238" stroke-width="0.170303" stroke-linecap="round" stroke-linejoin="round"/>
<path d="M71.4122 76.7644C69.682 74.4974 67.9673 64.406 67.7124 60.9109C67.9132 61.2315 68.1218 61.552 68.3419 61.861C69.3753 63.2745 70.3021 64.7629 71.1148 66.3139C72.0468 64.4107 72.7993 62.4247 73.3625 60.3818C74.2199 65.8311 73.4204 71.6164 71.4122 76.7644Z" fill="white" stroke="#263238" stroke-width="0.170303" stroke-linecap="round" stroke-linejoin="round"/>
<path d="M87.2192 85.8358C86.9427 86.1379 86.5862 86.3552 86.191 86.4625C85.7958 86.5699 85.3783 86.5628 84.987 86.4422L84.5274 86.2838C81.0169 85.0326 79.754 83.3951 79.2944 82.3639C79.1446 82.0546 79.0579 81.7185 79.0396 81.3752C79.514 80.9904 80.0948 80.7599 80.7041 80.7148C82.8475 80.5372 85.3385 82.4141 86.5434 83.9744C87.1845 84.7931 87.4857 85.5269 87.2192 85.8358Z" fill="#263238" stroke="#263238" stroke-width="0.170303" stroke-linecap="round" stroke-linejoin="round"/>
<path d="M80.704 80.7148L80.5573 80.8732C80.1209 81.3521 79.6999 81.8541 79.2944 82.3639C78.7885 83.005 78.3173 83.6577 77.8655 84.3374C77.4136 85.0171 76.9618 85.7586 76.4945 86.4576C75.6144 87.7905 74.6277 89.0498 73.5439 90.2231C73.3722 90.4326 73.1674 90.6126 72.9376 90.756C72.6197 90.9104 72.2746 91.0009 71.9219 91.0225C70.3771 91.2388 68.755 91.5786 67.581 92.6098C67.0983 93.0346 66.7043 93.5676 66.1521 93.8881C65.5998 94.2086 64.727 94.4635 64.7 95.1355C64.7025 95.3174 64.7517 95.4956 64.8428 95.653C65.3295 96.5683 66.461 96.9854 67.496 96.912C68.5262 96.7766 69.5189 96.4365 70.4157 95.9118C72.4305 94.9318 74.3937 93.849 76.2975 92.6677C77.8771 91.6597 79.3871 90.5398 80.8778 89.3889C82.1567 88.435 83.3755 87.4032 84.5274 86.2993C85.2645 85.586 85.9389 84.8107 86.5434 83.9821C85.323 82.4141 82.8475 80.5372 80.704 80.7148Z" fill="white"/>
<mask id="mask1_288_50603" style="mask-type:luminance" maskUnits="userSpaceOnUse" x="64" y="80" width="23" height="17">
<path d="M80.704 80.7148L80.5573 80.8732C80.1209 81.3521 79.6999 81.8541 79.2944 82.3639C78.7885 83.005 78.3173 83.6577 77.8655 84.3374C77.4136 85.0171 76.9618 85.7586 76.4945 86.4576C75.6144 87.7905 74.6277 89.0498 73.5439 90.2231C73.3722 90.4326 73.1674 90.6126 72.9376 90.756C72.6197 90.9104 72.2746 91.0009 71.9219 91.0225C70.3771 91.2388 68.755 91.5786 67.581 92.6098C67.0983 93.0346 66.7043 93.5676 66.1521 93.8881C65.5998 94.2086 64.727 94.4635 64.7 95.1355C64.7025 95.3174 64.7517 95.4956 64.8428 95.653C65.3295 96.5683 66.461 96.9854 67.496 96.912C68.5262 96.7766 69.5189 96.4365 70.4157 95.9118C72.4305 94.9318 74.3937 93.849 76.2975 92.6677C77.8771 91.6597 79.3871 90.5398 80.8778 89.3889C82.1567 88.435 83.3755 87.4032 84.5274 86.2993C85.2645 85.586 85.9389 84.8107 86.5434 83.9821C85.323 82.4141 82.8475 80.5372 80.704 80.7148Z" fill="white"/>
</mask>
<g mask="url(#mask1_288_50603)">
<path opacity="0.2" d="M83.6315 83.5692L84.8403 85.4346C84.9098 85.5388 85.0025 85.6586 85.1299 85.647C85.2067 85.6272 85.2747 85.5824 85.323 85.5195C85.877 84.9354 86.3032 84.2423 86.5743 83.4843C85.7633 82.4222 84.2571 81.0551 82.8668 80.8581C80.6655 80.5491 83.1294 82.793 83.6315 83.5692Z" fill="black"/>
</g>
<path d="M80.704 80.7148L80.5573 80.8732C80.1209 81.3521 79.6999 81.8541 79.2944 82.3639C78.7885 83.005 78.3173 83.6577 77.8655 84.3374C77.4136 85.0171 76.9618 85.7586 76.4945 86.4576C75.6144 87.7905 74.6277 89.0498 73.5439 90.2231C73.3722 90.4326 73.1674 90.6126 72.9376 90.756C72.6197 90.9104 72.2746 91.0009 71.9219 91.0225C70.3771 91.2388 68.755 91.5786 67.581 92.6098C67.0983 93.0346 66.7043 93.5676 66.1521 93.8881C65.5998 94.2086 64.727 94.4635 64.7 95.1355C64.7025 95.3174 64.7517 95.4956 64.8428 95.653C65.3295 96.5683 66.461 96.9854 67.496 96.912C68.5262 96.7766 69.5189 96.4365 70.4157 95.9118C72.4305 94.9318 74.3937 93.849 76.2975 92.6677C77.8771 91.6597 79.3871 90.5398 80.8778 89.3889C82.1567 88.435 83.3755 87.4032 84.5274 86.2993C85.2645 85.586 85.9389 84.8107 86.5434 83.9821C85.323 82.4141 82.8475 80.5372 80.704 80.7148Z" stroke="#263238" stroke-width="0.170303" stroke-linecap="round" stroke-linejoin="round"/>
<path d="M62.3095 45.2117C61.5363 46.1342 61.1331 47.3109 61.1779 48.5138C61.2282 49.7052 61.4267 50.8858 61.7688 52.0282L62.6841 55.643C62.7161 55.8594 62.8146 56.0605 62.966 56.2184C63.0986 56.3007 63.2482 56.3517 63.4034 56.3678C63.5586 56.3838 63.7154 56.3645 63.862 56.3111C64.7072 56.1332 65.5384 55.8944 66.3491 55.5966C67.025 55.3495 67.724 55.0289 68.1025 54.4149C68.3372 53.9775 68.463 53.49 68.4694 52.9937C68.5972 50.964 68.1444 48.94 67.164 47.1582C66.7809 46.3691 66.1876 45.7009 65.4493 45.2272C65.0802 44.9955 64.6532 44.8726 64.2173 44.8726C63.7815 44.8726 63.3545 44.9955 62.9854 45.2272L62.9004 45.6482L62.3095 45.2117Z" fill="#263238" stroke="#263238" stroke-width="0.170303" stroke-linecap="round" stroke-linejoin="round"/>
<path d="M73.3626 60.3624C72.8006 62.4119 72.0481 64.4044 71.115 66.3137C70.3015 64.7694 69.3746 63.2875 68.3421 61.8802C68.1219 61.5712 67.9134 61.2507 67.7126 60.9301C67.6621 60.5533 67.6621 60.1715 67.7126 59.7947C67.8101 59.5558 67.8763 59.3052 67.9095 59.0493C67.9095 58.4468 67.9095 58.4082 66.944 56.9677C66.4564 56.2012 66.0475 55.3873 65.7236 54.5385C65.882 53.071 64.8315 51.1631 65.3374 51.2017C65.7322 51.6136 66.1898 51.9603 66.693 52.229C67.7598 52.7585 68.9003 53.1243 70.0761 53.3143C70.6013 53.4224 70.8253 53.5614 71.3351 53.4031C71.4705 53.363 71.6003 53.3059 71.7213 53.2332C71.9612 53.0878 72.1806 52.9111 72.374 52.7079L72.4242 52.6539C72.5323 52.5534 72.6675 52.3719 72.6211 53.0401C72.5169 54.5617 72.8644 55.0019 73.2082 55.0869C73.0807 55.5851 72.8992 56.2455 72.5825 57.1569C72.0303 58.7404 73.2004 59.4741 73.2738 59.926L73.3626 60.3624Z" fill="white" stroke="#263238" stroke-width="0.170303" stroke-linecap="round" stroke-linejoin="round"/>
<path d="M70.0295 54.89C71.5743 55.1526 72.9492 51.5957 72.6209 51.1786C72.4857 51.0378 72.324 50.925 72.145 50.8468C71.9661 50.7686 71.7735 50.7265 71.5782 50.7229C70.354 50.5993 69.1645 51.0164 67.9441 51.0435C67.3501 51.0472 66.7606 50.9398 66.2062 50.7268C65.596 50.5221 65.2445 50.3406 65.3681 51.113C65.6578 52.9436 68.4114 54.6081 70.0295 54.89Z" fill="#263238" stroke="#263238" stroke-width="0.170303" stroke-linecap="round" stroke-linejoin="round"/>
<path d="M74.3974 48.1275C74.3781 48.3206 74.355 48.5137 74.3241 48.7029C74.1199 50.2885 73.4306 51.7723 72.3506 52.9511L72.3004 53.0052C72.1032 53.2122 71.8799 53.3927 71.6361 53.542C71.5681 53.5856 71.4956 53.6219 71.4198 53.6501C71.3666 53.6799 71.3094 53.702 71.2499 53.7158C70.7285 53.8741 70.5007 53.7351 69.96 53.6231C68.7744 53.3836 65.5226 51.889 65.1286 51.4681C64.6884 51.0047 64.0627 49.4714 63.9121 49.3479C63.7061 49.2387 63.4719 49.1943 63.2401 49.2204C63.098 49.2132 62.9575 49.1859 62.823 49.1393C62.823 49.0119 62.823 48.8767 62.796 48.7531C62.7806 48.5255 62.7806 48.2971 62.796 48.0695C62.8385 47.1079 63.8851 46.2003 64.5532 45.509C65.5785 44.4395 66.3517 43.1543 66.8163 41.7475C67.1601 40.6893 67.3338 39.5693 67.8591 38.5845C68.3148 37.7233 69.1528 36.974 70.0952 36.8813H70.1724H70.381C71.9 38.3454 73.0855 40.1197 73.8567 42.0835L73.8915 42.2418C73.9301 42.4001 73.961 42.5662 73.9881 42.7207C74.3811 44.4943 74.519 46.3149 74.3974 48.1275Z" fill="white" stroke="#263238" stroke-width="0.170303" stroke-linecap="round" stroke-linejoin="round"/>
<path d="M70.0914 36.8853C69.1491 36.9779 68.311 37.7272 67.8553 38.5884C67.3301 39.5732 67.1563 40.6932 66.8126 41.7514C66.3479 43.1582 65.5747 44.4434 64.5494 45.5129C63.8813 46.2042 62.8347 47.1118 62.7922 48.0734C62.7768 48.301 62.7768 48.5294 62.7922 48.757C62.7922 48.8845 62.7922 49.0196 62.8193 49.1432C62.7111 49.1078 62.6064 49.0626 62.5065 49.008C62.491 48.774 62.491 48.5392 62.5065 48.3052C62.5489 47.3242 63.6187 46.3935 64.3023 45.6906C65.3539 44.5928 66.1457 43.2731 66.6195 41.8286C66.9748 40.7472 67.1486 39.6041 67.6892 38.6C68.1643 37.7117 69.0757 36.9123 70.0914 36.8853Z" fill="white" stroke="#263238" stroke-width="0.170303" stroke-linecap="round" stroke-linejoin="round"/>
<path d="M70.686 47.4132C70.9558 47.5353 71.2572 47.5691 71.5473 47.5097C72.0455 47.4016 72.5089 46.6678 71.9914 46.4129C71.6377 46.1884 71.3666 45.855 71.219 45.4629" stroke="#263238" stroke-width="0.170303" stroke-linecap="round" stroke-linejoin="round"/>
<path d="M68.3535 49.9312C70.2034 48.4984 71.6748 49.2862 71.6748 49.2862" stroke="#263238" stroke-width="0.170303" stroke-linecap="round" stroke-linejoin="round"/>
<path d="M72.8181 43.2695C73.0576 43.2695 73.2738 43.6557 73.297 44.1192C73.3202 44.5826 73.1541 44.9997 72.9108 45.0113C72.6675 45.0229 72.4551 44.6483 72.4281 44.1655C72.401 43.6828 72.5748 43.285 72.8181 43.2695Z" fill="#263238"/>
<path d="M68.4809 43.3462C68.7165 43.3462 68.9366 43.7324 68.9598 44.1958C68.983 44.6593 68.8169 45.0764 68.5736 45.0879C68.3303 45.0995 68.1179 44.7249 68.0909 44.2422C68.0638 43.7594 68.2608 43.3616 68.4809 43.3462Z" fill="#263238"/>
<path d="M71.81 45.5169L71.3697 43.6516C71.3641 43.6184 71.3641 43.5844 71.3697 43.5512C71.3649 43.4976 71.3712 43.4436 71.3885 43.3927C71.4057 43.3417 71.4334 43.295 71.4698 43.2553C71.5061 43.2157 71.5503 43.1841 71.5996 43.1626C71.6489 43.141 71.7021 43.13 71.7559 43.1302L75.9462 42.9024C75.9834 42.8984 76.0209 42.8984 76.0582 42.9024C76.1113 42.9125 76.1618 42.9331 76.207 42.9629C76.2521 42.9928 76.2908 43.0312 76.321 43.0761C76.3512 43.121 76.3721 43.1714 76.3827 43.2244C76.3933 43.2775 76.3932 43.3321 76.3826 43.3851L76.1006 45.2891C76.0898 45.3856 76.045 45.475 75.9742 45.5415C75.9035 45.608 75.8114 45.6472 75.7144 45.6521L72.2386 45.8413C72.1412 45.8429 72.0461 45.8118 71.9684 45.753C71.8907 45.6942 71.835 45.6111 71.81 45.5169Z" stroke="#263238" stroke-width="0.170303" stroke-linecap="round" stroke-linejoin="round"/>
<path d="M64.839 45.8954L64.3562 44.03C64.3503 43.9981 64.3503 43.9654 64.3562 43.9335C64.3572 43.8758 64.3696 43.819 64.3927 43.7661C64.4158 43.7133 64.4492 43.6656 64.4908 43.6257C64.5325 43.5859 64.5816 43.5547 64.6354 43.5339C64.6892 43.5132 64.7466 43.5033 64.8042 43.5048L69.4772 43.2538C69.508 43.25 69.5391 43.25 69.5699 43.2538C69.6851 43.2683 69.7901 43.3274 69.8622 43.4183C69.9344 43.5093 69.9681 43.6249 69.9561 43.7404L69.6471 45.6482C69.6238 45.7501 69.567 45.8412 69.4858 45.9071C69.4046 45.9729 69.3037 46.0095 69.1992 46.0112L65.3372 46.2198C65.2293 46.2327 65.1203 46.2073 65.0292 46.148C64.9381 46.0887 64.8708 45.9993 64.839 45.8954Z" stroke="#263238" stroke-width="0.170303" stroke-linecap="round" stroke-linejoin="round"/>
<path d="M69.4927 43.3117L71.5511 43.1997" stroke="#263238" stroke-width="0.170303" stroke-linecap="round" stroke-linejoin="round"/>
<path d="M69.9873 44.2193L71.4201 44.1421" stroke="#263238" stroke-width="0.170303" stroke-linecap="round" stroke-linejoin="round"/>
<path d="M71.5667 42.2034L71.5937 42.1802C71.7623 42.0556 71.9538 41.9654 72.1572 41.9148C72.3607 41.8642 72.5721 41.8542 72.7795 41.8854C72.9868 41.9166 73.1859 41.9884 73.3655 42.0967C73.5451 42.2049 73.7015 42.3475 73.8259 42.5162" stroke="#263238" stroke-width="0.170303" stroke-linecap="round" stroke-linejoin="round"/>
<path d="M66.6272 42.5974C68.2261 41.238 69.3885 42.3193 69.3885 42.3193" stroke="#263238" stroke-width="0.170303" stroke-linecap="round" stroke-linejoin="round"/>
<path d="M77.2669 92.8225C77.2669 94.3673 73.459 95.6108 68.7706 95.6108C64.0821 95.6108 60.2742 94.3634 60.2742 92.8225C60.2742 91.2816 64.086 90.0303 68.7706 90.0303C73.4551 90.0303 77.2669 91.2816 77.2669 92.8225Z" fill="white" stroke="#263238" stroke-width="0.170303" stroke-linecap="round" stroke-linejoin="round"/>
<path d="M69.3075 86.8866C66.4844 86.7823 64.1363 88.2537 64.0668 90.177C63.9973 92.1003 66.2295 93.7377 69.0487 93.842C71.868 93.9463 74.2199 92.471 74.2895 90.5516C74.359 88.6322 72.1229 86.987 69.3075 86.8866ZM69.0989 89.8024C68.2377 89.7715 67.5541 89.4973 67.5541 89.1883C67.5541 88.8794 68.2763 88.6554 69.1376 88.6863C69.9988 88.7171 70.6824 88.9913 70.6824 89.3003C70.6824 89.6093 69.964 89.8333 69.0989 89.8024Z" fill="white" stroke="#263238" stroke-width="0.170303" stroke-linecap="round" stroke-linejoin="round"/>
<path d="M64.6228 91.0303C64.7966 90.9916 64.8777 90.7908 65.0322 90.702C65.1364 90.6574 65.2522 90.6472 65.3626 90.6729C65.473 90.6986 65.5724 90.7588 65.6462 90.8449C65.7849 91.0219 65.9138 91.2062 66.0324 91.3972C66.2746 91.6836 66.6173 91.8664 66.99 91.908C67.3628 91.9497 67.7374 91.847 68.0368 91.6211C68.1327 91.5259 68.242 91.4452 68.3612 91.3817C68.7165 91.2349 69.0757 91.54 69.4117 91.7177C69.6909 91.8566 70.0035 91.9147 70.314 91.8854C70.6245 91.856 70.9206 91.7404 71.1689 91.5516C71.3074 91.415 71.468 91.3027 71.6439 91.2195C72.0301 91.092 72.4163 91.428 72.8488 91.4512C73.0618 91.4392 73.2687 91.3757 73.4517 91.266C73.6347 91.1563 73.7883 91.0039 73.8993 90.8217C74.0306 90.6441 74.1465 90.4355 74.2855 90.2617C74.1465 88.462 71.9992 86.9674 69.3113 86.8709C66.9941 86.7859 65.0129 87.7553 64.3254 89.1611C64.1698 89.4724 64.0829 89.8135 64.0705 90.1613C64.0647 90.3453 64.0802 90.5293 64.1169 90.7097C64.159 90.7732 64.2068 90.8326 64.2598 90.8874C64.3047 90.9382 64.361 90.9777 64.4241 91.0025C64.4872 91.0273 64.5553 91.0369 64.6228 91.0303ZM69.1413 88.6706C70.0064 88.7015 70.6861 88.9757 70.6861 89.2846C70.6861 89.5936 69.9639 89.8176 69.0989 89.7867C68.2338 89.7558 67.5541 89.4816 67.5541 89.1726C67.5541 88.8637 68.2801 88.6551 69.1413 88.686V88.6706Z" fill="#5C5C5C"/>
<path d="M64.3254 89.1611C65.0129 87.7553 66.9941 86.7859 69.3113 86.8709C71.9992 86.9674 74.1465 88.462 74.2855 90.2617C74.1465 90.4355 74.0306 90.6441 73.8993 90.8217C73.7883 91.0039 73.6347 91.1563 73.4517 91.266C73.2687 91.3757 73.0618 91.4392 72.8488 91.4512C72.4163 91.428 72.0301 91.092 71.6439 91.2195C71.468 91.3027 71.3074 91.415 71.1689 91.5516C70.9206 91.7404 70.6245 91.856 70.314 91.8854C70.0035 91.9147 69.6909 91.8566 69.4117 91.7177C69.0757 91.54 68.7165 91.2349 68.3612 91.3817C68.242 91.4452 68.1327 91.5259 68.0368 91.6211C67.7374 91.847 67.3628 91.9497 66.99 91.908C66.6173 91.8664 66.2746 91.6836 66.0324 91.3972C65.9138 91.2062 65.7849 91.0219 65.6462 90.8449C65.5724 90.7588 65.473 90.6986 65.3626 90.6729C65.2522 90.6472 65.1364 90.6574 65.0322 90.702C64.8777 90.7908 64.7966 90.9916 64.6228 91.0303C64.5553 91.0369 64.4872 91.0273 64.4241 91.0025C64.361 90.9777 64.3047 90.9382 64.2598 90.8874C64.2068 90.8326 64.159 90.7732 64.1169 90.7097C64.0802 90.5293 64.0647 90.3453 64.0705 90.1613C64.0829 89.8135 64.1698 89.4724 64.3254 89.1611ZM64.3254 89.1611C64.3694 89.1181 64.4172 89.0793 64.4683 89.0452M69.1413 88.6706C70.0064 88.7015 70.6861 88.9757 70.6861 89.2846C70.6861 89.5936 69.9639 89.8176 69.0989 89.7867C68.2338 89.7558 67.5541 89.4816 67.5541 89.1726C67.5541 88.8637 68.2801 88.6551 69.1413 88.686V88.6706Z" stroke="#263238" stroke-width="0.170303" stroke-linecap="round" stroke-linejoin="round"/>
<path d="M75.0889 70.0599C75.1025 70.2388 75.1335 70.416 75.1816 70.589C75.246 70.8437 75.3339 71.092 75.4442 71.3305C75.6034 71.6398 75.8063 71.9247 76.0466 72.1762L76.2127 72.3346C76.3578 72.4842 76.5154 72.6212 76.6839 72.7439C76.9995 73.0019 77.3631 73.1949 77.7536 73.3117C77.7901 73.322 77.8237 73.3407 77.8519 73.3661C77.88 73.3916 77.9019 73.4232 77.9158 73.4584C77.9583 73.5588 78.0124 73.6515 78.0587 73.7481C78.1016 73.8279 78.139 73.9104 78.1707 73.9952C78.2114 74.1159 78.29 74.2202 78.3947 74.2926C78.5983 74.4267 78.8248 74.5223 79.0629 74.5745C79.6771 74.7413 80.311 74.8245 80.9475 74.8217C81.276 74.8301 81.6048 74.821 81.9323 74.7947C82.286 74.7645 82.637 74.709 82.9828 74.6286C83.2606 74.571 83.5286 74.4734 83.7783 74.339C83.8838 74.2857 83.9712 74.2024 84.0294 74.0995C84.0564 74.0416 84.068 73.9875 84.0989 73.9296C84.18 73.7674 84.2572 73.6013 84.3345 73.4391C84.4542 73.1881 84.5546 72.9293 84.6512 72.6667C84.7477 72.4041 84.8443 72.1608 84.9138 71.8943C84.9833 71.6278 85.0567 71.3614 85.1107 71.091C85.2073 70.6392 85.2884 70.1796 85.3618 69.7161C85.3965 69.4999 85.4081 69.2488 85.4313 69.0326C85.4473 68.8545 85.4382 68.6751 85.4043 68.4996C85.3769 68.3774 85.3183 68.2643 85.2343 68.1714C85.0045 67.9124 84.723 67.7045 84.4079 67.5612C84.1107 67.4233 83.7983 67.3209 83.4771 67.2561C83.3419 67.229 83.2145 67.1865 83.0909 67.1634C81.6857 66.8846 80.2369 66.9109 78.8427 67.2406C78.5617 67.3049 78.2856 67.3888 78.0163 67.4916C77.7814 67.5934 77.5597 67.7231 77.3559 67.8778C77.1989 67.9878 77.0672 68.13 76.9697 68.2949C76.936 68.3586 76.91 68.426 76.8924 68.4958C76.8654 68.5807 76.8654 68.5846 76.7843 68.5653C76.5679 68.5025 76.3387 68.4983 76.1201 68.5533C75.9016 68.6083 75.7016 68.7204 75.5407 68.8781C75.413 69.0145 75.3156 69.1764 75.2549 69.3531C75.1509 69.5745 75.0943 69.8153 75.0889 70.0599ZM78.6496 69.1755C78.3685 69.1099 78.0953 69.0141 77.8347 68.8897C77.7668 68.866 77.7049 68.8278 77.6532 68.7777C77.7494 68.62 77.8818 68.4876 78.0394 68.3915C78.1434 68.3273 78.2518 68.2705 78.3638 68.2216C78.5594 68.1343 78.7623 68.0645 78.9702 68.013C79.2908 67.9354 79.6158 67.8774 79.9434 67.8392C80.256 67.7999 80.5706 67.778 80.8857 67.7736C81.1831 67.7736 81.4148 67.7736 81.7122 67.7736C82.0815 67.7985 82.449 67.8449 82.8129 67.9126C83.1828 67.9755 83.5443 68.0805 83.8904 68.2254C84.1897 68.3368 84.4556 68.523 84.6627 68.7661L84.6357 68.7893L84.5546 68.8433C84.479 68.8898 84.4003 68.9311 84.319 68.9669C84.0101 69.103 83.6859 69.2015 83.3535 69.2604C83.2763 69.2797 83.2029 69.2952 83.1257 69.3068L82.9982 69.3261C82.7511 69.3686 82.5039 69.3917 82.2567 69.4149C82.0096 69.4381 81.774 69.4497 81.5307 69.4458H80.9707H80.8085C80.5613 69.4458 80.3141 69.4188 80.067 69.3917C79.8198 69.3647 79.6267 69.3608 79.4066 69.33C79.1864 69.2991 78.8968 69.2334 78.6496 69.1755ZM76.2436 69.8938C76.2723 69.7926 76.33 69.7021 76.4096 69.6334C76.4893 69.5648 76.5873 69.521 76.6916 69.5076H76.8538C76.8963 69.8706 76.9658 70.2182 77.0237 70.5658C77.101 71.0215 77.213 71.4695 77.3288 71.9175C77.3805 72.1381 77.4638 72.3501 77.576 72.547L77.3288 72.3346C77.0898 72.1064 76.8832 71.8465 76.7148 71.5622C76.5238 71.2876 76.3729 70.9872 76.2668 70.6701C76.179 70.4199 76.1709 70.1487 76.2436 69.8938Z" fill="white" stroke="#263238" stroke-width="0.170303" stroke-linecap="round" stroke-linejoin="round"/>
<path opacity="0.8" d="M75.0889 70.0599C75.1025 70.2388 75.1335 70.416 75.1816 70.589C75.246 70.8437 75.3339 71.092 75.4442 71.3305C75.6034 71.6398 75.8063 71.9247 76.0466 72.1762L76.2127 72.3346C76.3578 72.4842 76.5154 72.6212 76.6839 72.7439C76.9995 73.0019 77.3631 73.1949 77.7536 73.3117C77.7901 73.322 77.8237 73.3407 77.8519 73.3661C77.88 73.3916 77.9019 73.4232 77.9158 73.4584C77.9583 73.5588 78.0124 73.6515 78.0587 73.7481C78.1016 73.8279 78.139 73.9104 78.1707 73.9952C78.2114 74.1159 78.29 74.2202 78.3947 74.2926C78.5983 74.4267 78.8248 74.5223 79.0629 74.5745C79.6771 74.7413 80.311 74.8245 80.9475 74.8217C81.276 74.8301 81.6048 74.821 81.9323 74.7947C82.286 74.7645 82.637 74.709 82.9828 74.6286C83.2606 74.571 83.5286 74.4734 83.7783 74.339C83.8838 74.2857 83.9712 74.2024 84.0294 74.0995C84.0564 74.0416 84.068 73.9875 84.0989 73.9296C84.18 73.7674 84.2572 73.6013 84.3345 73.4391C84.4542 73.1881 84.5546 72.9293 84.6512 72.6667C84.7477 72.4041 84.8443 72.1608 84.9138 71.8943C84.9833 71.6278 85.0567 71.3614 85.1107 71.091C85.2073 70.6392 85.2884 70.1796 85.3618 69.7161C85.3965 69.4999 85.4081 69.2488 85.4313 69.0326C85.4473 68.8545 85.4382 68.6751 85.4043 68.4996C85.3769 68.3774 85.3183 68.2643 85.2343 68.1714C85.0045 67.9124 84.723 67.7045 84.4079 67.5612C84.1107 67.4233 83.7983 67.3209 83.4771 67.2561C83.3419 67.229 83.2145 67.1865 83.0909 67.1634C81.6857 66.8846 80.2369 66.9109 78.8427 67.2406C78.5617 67.3049 78.2856 67.3888 78.0163 67.4916C77.7814 67.5934 77.5597 67.7231 77.3559 67.8778C77.1989 67.9878 77.0672 68.13 76.9697 68.2949C76.936 68.3586 76.91 68.426 76.8924 68.4958C76.8654 68.5807 76.8654 68.5846 76.7843 68.5653C76.5679 68.5025 76.3387 68.4983 76.1201 68.5533C75.9016 68.6083 75.7016 68.7204 75.5407 68.8781C75.413 69.0145 75.3156 69.1764 75.2549 69.3531C75.1509 69.5745 75.0943 69.8153 75.0889 70.0599ZM78.6496 69.1755C78.3685 69.1099 78.0953 69.0141 77.8347 68.8897C77.7668 68.866 77.7049 68.8278 77.6532 68.7777C77.7494 68.62 77.8818 68.4876 78.0394 68.3915C78.1434 68.3273 78.2518 68.2705 78.3638 68.2216C78.5594 68.1343 78.7623 68.0645 78.9702 68.013C79.2908 67.9354 79.6158 67.8774 79.9434 67.8392C80.256 67.7999 80.5706 67.778 80.8857 67.7736C81.1831 67.7736 81.4148 67.7736 81.7122 67.7736C82.0815 67.7985 82.449 67.8449 82.8129 67.9126C83.1828 67.9755 83.5443 68.0805 83.8904 68.2254C84.1897 68.3368 84.4556 68.523 84.6627 68.7661L84.6357 68.7893L84.5546 68.8433C84.479 68.8898 84.4003 68.9311 84.319 68.9669C84.0101 69.103 83.6859 69.2015 83.3535 69.2604C83.2763 69.2797 83.2029 69.2952 83.1257 69.3068L82.9982 69.3261C82.7511 69.3686 82.5039 69.3917 82.2567 69.4149C82.0096 69.4381 81.774 69.4497 81.5307 69.4458H80.9707H80.8085C80.5613 69.4458 80.3141 69.4188 80.067 69.3917C79.8198 69.3647 79.6267 69.3608 79.4066 69.33C79.1864 69.2991 78.8968 69.2334 78.6496 69.1755ZM76.2436 69.8938C76.2723 69.7926 76.33 69.7021 76.4096 69.6334C76.4893 69.5648 76.5873 69.521 76.6916 69.5076H76.8538C76.8963 69.8706 76.9658 70.2182 77.0237 70.5658C77.101 71.0215 77.213 71.4695 77.3288 71.9175C77.3805 72.1381 77.4638 72.3501 77.576 72.547L77.3288 72.3346C77.0898 72.1064 76.8832 71.8465 76.7148 71.5622C76.5238 71.2876 76.3729 70.9872 76.2668 70.6701C76.179 70.4199 76.1709 70.1487 76.2436 69.8938Z" fill="white" stroke="#263238" stroke-width="0.170303" stroke-linecap="round" stroke-linejoin="round"/>
<path opacity="0.7" d="M77.6494 68.7775C77.7435 68.6182 77.8764 68.4854 78.0356 68.3913C78.1374 68.3244 78.2446 68.2662 78.3562 68.2175C78.5526 68.1291 78.7569 68.0592 78.9664 68.0089C79.2857 67.9317 79.6094 67.8737 79.9357 67.8352C80.2563 67.7965 80.5575 67.7772 80.8819 67.7695C81.2063 67.7618 81.411 67.7695 81.7084 67.7927C82.0777 67.8146 82.4453 67.8598 82.809 67.9278C83.1787 67.9918 83.5401 68.0967 83.8865 68.2407C84.1847 68.3543 84.4501 68.5401 84.6589 68.7813H84.6358C84.61 68.8041 84.5814 68.8236 84.5508 68.8393C84.4778 68.888 84.4002 68.9294 84.3191 68.9629C84.0102 69.1 83.6861 69.1999 83.3536 69.2602L83.1257 69.3027L82.9983 69.322C82.7511 69.3645 82.5039 69.3915 82.2568 69.4108C82.0096 69.4302 81.774 69.4417 81.5307 69.4417H80.9669H80.8047C80.5575 69.4417 80.3103 69.4147 80.0632 69.3954C79.816 69.3761 79.6267 69.3606 79.4066 69.3297C79.1865 69.2988 78.9084 69.2255 78.6613 69.1675C78.3784 69.1037 78.1037 69.0078 77.8425 68.8817C77.7709 68.8624 77.7048 68.8267 77.6494 68.7775Z" fill="white" stroke="#263238" stroke-width="0.170303" stroke-linecap="round" stroke-linejoin="round"/>
<path d="M77.6609 68.7775C77.755 68.6182 77.8878 68.4854 78.0471 68.3913C78.1488 68.3244 78.2561 68.2662 78.3676 68.2175C78.5641 68.1291 78.7684 68.0592 78.9778 68.0089C79.2972 67.9317 79.6209 67.8737 79.9472 67.8352C80.2677 67.7965 80.569 67.7772 80.8934 67.7695C81.2178 67.7618 81.4225 67.7695 81.7198 67.7927C82.0892 67.8146 82.4568 67.8598 82.8205 67.9278C83.1902 67.9918 83.5516 68.0967 83.898 68.2407C84.1962 68.3543 84.4616 68.5401 84.6704 68.7813H84.6472C84.6214 68.8041 84.5929 68.8236 84.5623 68.8393C84.4893 68.888 84.4117 68.9294 84.3305 68.9629C84.0217 69.1 83.6976 69.1999 83.365 69.2602L83.1372 69.3027L83.0097 69.322C82.7626 69.3645 82.5154 69.3915 82.2682 69.4108C82.0211 69.4302 81.7855 69.4417 81.5422 69.4417H80.9783H80.8161C80.569 69.4417 80.3218 69.4147 80.0746 69.3954C79.8275 69.3761 79.6382 69.3606 79.4181 69.3297C79.198 69.2988 78.9199 69.2255 78.6727 69.1675C78.3898 69.1037 78.1151 69.0078 77.854 68.8817C77.7824 68.8624 77.7163 68.8267 77.6609 68.7775Z" fill="white" stroke="#263238" stroke-width="0.170303" stroke-linecap="round" stroke-linejoin="round"/>
<path d="M77.6609 68.7775C77.755 68.6182 77.8878 68.4854 78.0471 68.3913C78.1488 68.3244 78.2561 68.2662 78.3676 68.2175C78.5641 68.1291 78.7684 68.0592 78.9778 68.0089C79.2972 67.9317 79.6209 67.8737 79.9472 67.8352C80.2677 67.7965 80.569 67.7772 80.8934 67.7695C81.2178 67.7618 81.4225 67.7695 81.7198 67.7927C82.0892 67.8146 82.4568 67.8598 82.8205 67.9278C83.1902 67.9918 83.5516 68.0967 83.898 68.2407C84.1962 68.3543 84.4616 68.5401 84.6704 68.7813H84.6472C84.6214 68.8041 84.5929 68.8236 84.5623 68.8393C84.4893 68.888 84.4117 68.9294 84.3305 68.9629C84.0217 69.1 83.6976 69.1999 83.365 69.2602L83.1372 69.3027L83.0097 69.322C82.7626 69.3645 82.5154 69.3915 82.2682 69.4108C82.0211 69.4302 81.7855 69.4417 81.5422 69.4417H80.9783H80.8161C80.569 69.4417 80.3218 69.4147 80.0746 69.3954C79.8275 69.3761 79.6382 69.3606 79.4181 69.3297C79.198 69.2988 78.9199 69.2255 78.6727 69.1675C78.3898 69.1037 78.1151 69.0078 77.854 68.8817C77.7824 68.8624 77.7163 68.8267 77.6609 68.7775Z" fill="white" stroke="#263238" stroke-width="0.170303" stroke-linecap="round" stroke-linejoin="round"/>
<path d="M77.6531 68.7779C77.7047 68.828 77.7667 68.8663 77.8346 68.8899C78.0951 69.0143 78.3683 69.1101 78.6495 69.1757C78.8966 69.2337 79.1438 69.3032 79.3948 69.3379C79.6459 69.3727 79.8351 69.3843 80.0552 69.3997C80.2754 69.4152 80.5496 69.4422 80.7967 69.4538H80.9589H81.5189C81.7622 69.4538 82.0055 69.4538 82.245 69.4229C82.4844 69.392 82.7393 69.3766 82.9865 69.3341L83.1139 69.3148C83.1912 69.3148 83.2645 69.2877 83.3418 69.2684C83.6742 69.2095 83.9983 69.111 84.3073 68.9749C84.3885 68.9391 84.4672 68.8978 84.5429 68.8513L84.624 68.7972L84.651 68.7741C84.4439 68.5309 84.178 68.3448 83.8786 68.2334C83.5325 68.0884 83.171 67.9835 82.8011 67.9206C82.4372 67.8529 82.0697 67.8065 81.7004 67.7815C81.4031 67.7815 81.1713 67.7545 80.874 67.7815C80.5589 67.786 80.2443 67.8079 79.9316 67.8472C79.604 67.8854 79.279 67.9434 78.9584 68.021C78.7506 68.0724 78.5476 68.1422 78.3521 68.2295C78.2401 68.2785 78.1317 68.3352 78.0277 68.3995C77.8751 68.4948 77.7469 68.6244 77.6531 68.7779Z" fill="#263238"/>
<path d="M104.178 50.6225C102.111 48.6375 98.9291 48.5332 96.0674 48.5834C95.0246 48.5834 93.9317 48.6414 93.0318 49.1666C92.132 49.6918 91.5334 50.8813 92.0123 51.8082C92.4912 52.7351 93.8544 53.3221 93.5571 54.2992C91.1549 55.4114 88.3472 55.0407 85.7327 55.4887C83.6471 55.8487 81.687 56.7324 80.0362 58.0569C79.5529 58.3779 79.1987 58.8594 79.036 59.4163C78.866 60.3741 79.6925 61.1001 80.5808 61.5945C80.618 61.6139 80.6484 61.6441 80.6682 61.6812C80.6879 61.7182 80.696 61.7604 80.6914 61.8021C80.6868 61.8438 80.6698 61.8832 80.6424 61.915C80.6151 61.9469 80.5788 61.9698 80.5383 61.9807C79.906 62.1458 79.3101 62.4274 78.7811 62.811C78.7127 62.8673 78.6638 62.9438 78.6414 63.0295C78.619 63.1153 78.6242 63.2059 78.6563 63.2885C78.6884 63.3711 78.7457 63.4414 78.8201 63.4895C78.8945 63.5376 78.9822 63.561 79.0707 63.5564H79.2175C80.3027 63.5564 81.1832 64.1472 81.1832 64.8772C81.1832 65.6071 80.3027 66.2018 79.2175 66.2018C78.9471 66.2018 79.1287 66.534 79.5071 66.6305C80.2717 66.7866 81.0598 66.7866 81.8243 66.6305C82.7435 66.4876 83.736 66.2443 84.3076 65.5183C84.8792 64.7922 84.659 63.4328 83.7437 63.2667C85.6056 63.1906 87.4573 62.9529 89.278 62.5561C90.0736 62.3823 90.9425 62.1236 91.3789 61.4323C91.8153 60.741 91.3789 59.5592 90.564 59.6442C92.9585 58.922 95.4533 58.586 97.8632 57.9294C100.273 57.2729 102.675 56.2302 104.367 54.388C104.764 54.0027 105.046 53.5147 105.182 52.9784C105.336 52.1056 104.815 51.2521 104.178 50.6225Z" fill="white" stroke="#263238" stroke-width="0.170303" stroke-linecap="round" stroke-linejoin="round"/>
<path opacity="0.8" d="M104.178 50.6225C102.111 48.6375 98.9291 48.5332 96.0674 48.5834C95.0246 48.5834 93.9317 48.6414 93.0318 49.1666C92.132 49.6918 91.5334 50.8813 92.0123 51.8082C92.4912 52.7351 93.8544 53.3221 93.5571 54.2992C91.1549 55.4114 88.3472 55.0407 85.7327 55.4887C83.6471 55.8487 81.687 56.7324 80.0362 58.0569C79.5529 58.3779 79.1987 58.8594 79.036 59.4163C78.866 60.3741 79.6925 61.1001 80.5808 61.5945C80.618 61.6139 80.6484 61.6441 80.6682 61.6812C80.6879 61.7182 80.696 61.7604 80.6914 61.8021C80.6868 61.8438 80.6698 61.8832 80.6424 61.915C80.6151 61.9469 80.5788 61.9698 80.5383 61.9807C79.906 62.1458 79.3101 62.4274 78.7811 62.811C78.7127 62.8673 78.6638 62.9438 78.6414 63.0295C78.619 63.1153 78.6242 63.2059 78.6563 63.2885C78.6884 63.3711 78.7457 63.4414 78.8201 63.4895C78.8945 63.5376 78.9822 63.561 79.0707 63.5564H79.2175C80.3027 63.5564 81.1832 64.1472 81.1832 64.8772C81.1832 65.6071 80.3027 66.2018 79.2175 66.2018C78.9471 66.2018 79.1287 66.534 79.5071 66.6305C80.2717 66.7866 81.0598 66.7866 81.8243 66.6305C82.7435 66.4876 83.736 66.2443 84.3076 65.5183C84.8792 64.7922 84.659 63.4328 83.7437 63.2667C85.6056 63.1906 87.4573 62.9529 89.278 62.5561C90.0736 62.3823 90.9425 62.1236 91.3789 61.4323C91.8153 60.741 91.3789 59.5592 90.564 59.6442C92.9585 58.922 95.4533 58.586 97.8632 57.9294C100.273 57.2729 102.675 56.2302 104.367 54.388C104.764 54.0027 105.046 53.5147 105.182 52.9784C105.336 52.1056 104.815 51.2521 104.178 50.6225Z" fill="white" stroke="#263238" stroke-width="0.170303" stroke-linecap="round" stroke-linejoin="round"/>
<path d="M68.2029 73.4698C68.8247 73.184 70.076 72.0718 70.5819 71.6122C71.0878 71.1526 71.4045 70.639 71.8486 70.1833C72.2927 69.7276 73.1231 68.5651 75.9307 68.6076C76.7958 69.0363 75.4982 69.6465 74.4477 70.0829C74.4078 70.0962 74.3748 70.1248 74.3559 70.1625C74.3371 70.2001 74.334 70.2437 74.3473 70.2837C74.3606 70.3236 74.3893 70.3567 74.4269 70.3755C74.4646 70.3943 74.5082 70.3974 74.5481 70.3841C75.5986 70.1292 75.7878 69.828 76.734 69.743C77.0584 70.1794 77.0893 70.5733 76.456 71.253C75.1274 72.6743 76.6722 74.2461 75.1043 75.397C74.5566 75.7567 73.9728 76.0583 73.3625 76.2968C72.6712 76.5749 70.829 76.5169 70.1377 76.7911C68.2068 77.5635 63.1862 80.3326 62.4949 80.0082C62.5335 79.0311 62.576 78.054 62.6146 77.0808C62.6609 75.9222 62.4678 75.4974 63.5646 75.0957C65.8625 74.2577 66.4534 74.2847 68.2029 73.4698Z" fill="white" stroke="#263238" stroke-width="0.170303" stroke-linecap="round" stroke-linejoin="round"/>
<path d="M58.6446 76.274C62.5066 75.1965 64.0514 74.7292 64.0514 74.7292C65.071 76.7297 64.0514 82.2871 63.6961 82.3876C60.5718 83.2642 59.9114 83.4033 54.6397 84.5735C53.3923 84.8477 52.9521 83.4496 52.8516 83.1638C51.191 78.4715 51.3609 74.7292 51.7703 68.1561C51.7703 68.1561 52.0252 61.0037 55.6632 58.7406C58.8493 56.7517 59.2355 72.6708 58.6446 76.274Z" fill="#875AFF" stroke="#263238" stroke-width="0.170303" stroke-linecap="round" stroke-linejoin="round"/>
<path d="M51.7547 67.2983C51.7488 68.6044 52.0814 69.8898 52.7202 71.029" stroke="#263238" stroke-width="0.170303" stroke-linecap="round" stroke-linejoin="round"/>
<path d="M55.8601 84.3568C58.5651 83.6023 61.114 82.3717 63.3871 80.7227" stroke="#263238" stroke-width="0.170303" stroke-linecap="round" stroke-linejoin="round"/>
<path d="M57.9144 78.6719C57.6459 79.4874 57.471 80.3309 57.3931 81.186" stroke="#263238" stroke-width="0.170303" stroke-linecap="round" stroke-linejoin="round"/>
<path d="M58.6406 76.9614C58.4822 77.259 58.3391 77.5645 58.2119 77.8767" stroke="#263238" stroke-width="0.170303" stroke-linecap="round" stroke-linejoin="round"/>
<path d="M57.3082 77.0654C56.8191 77.4885 56.4781 78.0568 56.335 78.6875" stroke="#263238" stroke-width="0.170303" stroke-linecap="round" stroke-linejoin="round"/>
<path d="M77.7768 62.4789C77.2477 64.3017 75.0734 65.7809 73.4204 64.8231C74.8726 63.873 74.9652 61.6871 74.1928 60.1423C74.4864 61.1851 73.88 63.5293 72.2619 64.4253C71.725 64.7227 70.9951 64.8115 70.5278 64.4021C73.7024 61.9034 71.5667 53.5885 71.6362 53.5538C71.88 53.4045 72.1033 53.224 72.3005 53.017L72.3507 52.9629C73.4307 51.7841 74.12 50.3003 74.3242 48.7147C74.3744 48.4444 74.413 48.1779 74.4362 47.9076C74.5482 46.1356 74.4078 44.3567 74.0191 42.6243C73.9882 42.466 73.9611 42.3115 73.9264 42.1532C73.9256 42.0994 73.9124 42.0465 73.8878 41.9987C73.6522 41.4851 73.6174 40.7204 73.3471 40.6663C71.0531 40.2338 70.6437 37.4493 70.524 37.457C70.4931 37.457 66.9439 39.1794 66.8126 41.7631C66.7353 43.2307 65.5729 44.4665 64.5495 45.5247C63.8813 46.216 62.8347 47.1236 62.7923 48.0852C62.7768 48.3128 62.7768 48.5412 62.7923 48.7688C62.7923 48.8962 62.7923 49.0314 62.8193 49.155C63.0935 51.8584 64.6846 54.415 64.5224 57.1454C64.3602 59.8759 62.4485 62.2162 60.8535 64.4832C59.2585 66.7502 58.0072 69.0172 58.9921 71.6279C56.8332 70.7821 55.8214 68.2023 55.9025 65.8851C55.9836 63.5679 56.2539 60.1385 57.3932 58.1148C62.0005 49.9312 54.9177 44.1074 59.6216 37.932C66.2912 29.173 74.1426 36.5726 75.4982 43.165C75.9385 45.32 75.9578 47.5368 76.1277 49.7304C76.3221 52.1366 76.7096 54.5233 77.2863 56.8674C77.7382 58.7134 78.302 60.6483 77.7768 62.4789Z" fill="#263238" stroke="#263238" stroke-width="0.170303" stroke-linecap="round" stroke-linejoin="round"/>
<path d="M99.3441 20.3825C94.0892 16.3099 86.568 17.2952 82.4955 22.5173C79.3753 26.5571 79.244 31.9762 81.7401 36.1145L80.6891 39.563L84.4989 39.2346C84.5646 39.2674 84.5974 39.3331 84.6631 39.366C89.9181 43.4385 97.4392 42.4532 101.512 37.2312C105.552 32.0091 104.599 24.4551 99.3441 20.3825Z" fill="#F80101"/>
<path d="M92.0048 22.5151C90.62 22.5151 89.2663 22.9258 88.1149 23.6951C86.9635 24.4645 86.0661 25.558 85.5361 26.8373C85.0062 28.1167 84.8676 29.5245 85.1377 30.8827C85.4079 32.2409 86.0747 33.4884 87.0539 34.4676C88.0331 35.4468 89.2807 36.1137 90.6388 36.3838C91.997 36.654 93.4048 36.5153 94.6842 35.9854C95.9636 35.4555 97.0571 34.5581 97.8264 33.4066C98.5958 32.2552 99.0064 30.9015 99.0064 29.5168C99.0044 27.6604 98.2661 25.8807 96.9535 24.568C95.6409 23.2554 93.8611 22.5171 92.0048 22.5151ZM94.5402 31.29C94.5902 31.3401 94.6299 31.3995 94.657 31.4649C94.6841 31.5303 94.698 31.6003 94.698 31.6711C94.698 31.7419 94.6841 31.8119 94.657 31.8773C94.6299 31.9427 94.5902 32.0021 94.5402 32.0521C94.4901 32.1022 94.4307 32.1419 94.3654 32.169C94.3 32.196 94.2299 32.21 94.1591 32.21C94.0884 32.21 94.0183 32.196 93.9529 32.169C93.8875 32.1419 93.8281 32.1022 93.7781 32.0521L92.0048 30.2782L90.2315 32.0521C90.1815 32.1022 90.1221 32.1419 90.0567 32.169C89.9913 32.196 89.9212 32.21 89.8504 32.21C89.7797 32.21 89.7096 32.196 89.6442 32.169C89.5788 32.1419 89.5194 32.1022 89.4694 32.0521C89.4194 32.0021 89.3797 31.9427 89.3526 31.8773C89.3255 31.8119 89.3116 31.7419 89.3116 31.6711C89.3116 31.6003 89.3255 31.5303 89.3526 31.4649C89.3797 31.3995 89.4194 31.3401 89.4694 31.29L91.2434 29.5168L89.4694 27.7435C89.3683 27.6424 89.3116 27.5053 89.3116 27.3624C89.3116 27.2195 89.3683 27.0824 89.4694 26.9814C89.5705 26.8803 89.7075 26.8235 89.8504 26.8235C89.9934 26.8235 90.1304 26.8803 90.2315 26.9814L92.0048 28.7553L93.7781 26.9814C93.8281 26.9313 93.8875 26.8916 93.9529 26.8645C94.0183 26.8375 94.0884 26.8235 94.1591 26.8235C94.2299 26.8235 94.3 26.8375 94.3654 26.8645C94.4307 26.8916 94.4901 26.9313 94.5402 26.9814C94.5902 27.0314 94.6299 27.0908 94.657 27.1562C94.6841 27.2216 94.698 27.2916 94.698 27.3624C94.698 27.4332 94.6841 27.5033 94.657 27.5686C94.6299 27.634 94.5902 27.6934 94.5402 27.7435L92.7662 29.5168L94.5402 31.29Z" fill="white"/>
</svg>
