<svg width="21" height="21" viewBox="0 0 21 21" fill="none" xmlns="http://www.w3.org/2000/svg">
<g clip-path="url(#clip0_381_59798)">
<path d="M10.5 2.53809C8.89303 2.53809 7.32214 3.01461 5.986 3.9074C4.64985 4.80018 3.60844 6.06913 2.99348 7.55378C2.37852 9.03843 2.21762 10.6721 2.53112 12.2482C2.84463 13.8243 3.61846 15.272 4.75476 16.4083C5.89106 17.5446 7.3388 18.3185 8.9149 18.632C10.491 18.9455 12.1247 18.7846 13.6093 18.1696C15.094 17.5546 16.3629 16.5132 17.2557 15.1771C18.1485 13.8409 18.625 12.2701 18.625 10.6631C18.6227 8.5089 17.766 6.4436 16.2427 4.92036C14.7195 3.39712 12.6542 2.54036 10.5 2.53809ZM14.0672 9.23027L9.69219 13.6053C9.63415 13.6634 9.56522 13.7095 9.48934 13.7409C9.41347 13.7724 9.33214 13.7886 9.25 13.7886C9.16787 13.7886 9.08654 13.7724 9.01067 13.7409C8.93479 13.7095 8.86586 13.6634 8.80782 13.6053L6.93282 11.7303C6.81554 11.613 6.74966 11.4539 6.74966 11.2881C6.74966 11.1222 6.81554 10.9632 6.93282 10.8459C7.05009 10.7286 7.20915 10.6627 7.375 10.6627C7.54086 10.6627 7.69992 10.7286 7.81719 10.8459L9.25 12.2795L13.1828 8.3459C13.2409 8.28783 13.3098 8.24177 13.3857 8.21034C13.4616 8.17891 13.5429 8.16274 13.625 8.16274C13.7071 8.16274 13.7884 8.17891 13.8643 8.21034C13.9402 8.24177 14.0091 8.28783 14.0672 8.3459C14.1253 8.40397 14.1713 8.47291 14.2027 8.54878C14.2342 8.62465 14.2504 8.70596 14.2504 8.78809C14.2504 8.87021 14.2342 8.95153 14.2027 9.0274C14.1713 9.10327 14.1253 9.1722 14.0672 9.23027Z" fill="#06C740"/>
</g>
<defs>
<clipPath id="clip0_381_59798">
<rect width="20" height="20" fill="white" transform="translate(0.5 0.663086)"/>
</clipPath>
</defs>
</svg>
