<svg width="20" height="21" viewBox="0 0 20 21" fill="none" xmlns="http://www.w3.org/2000/svg">
<g clip-path="url(#clip0_381_60319)">
<path d="M10 2.53772C8.39303 2.53772 6.82214 3.01424 5.486 3.90703C4.14985 4.79982 3.10844 6.06877 2.49348 7.55342C1.87852 9.03807 1.71762 10.6717 2.03112 12.2478C2.34463 13.8239 3.11846 15.2717 4.25476 16.408C5.39106 17.5443 6.8388 18.3181 8.4149 18.6316C9.99099 18.9451 11.6247 18.7842 13.1093 18.1692C14.594 17.5543 15.8629 16.5129 16.7557 15.1767C17.6485 13.8406 18.125 12.2697 18.125 10.6627C18.1227 8.50853 17.266 6.44323 15.7427 4.91999C14.2195 3.39675 12.1542 2.53999 10 2.53772ZM14.375 11.2877H11.5086L13.5672 13.3455C13.6253 13.4036 13.6713 13.4725 13.7027 13.5484C13.7342 13.6243 13.7504 13.7056 13.7504 13.7877C13.7504 13.8698 13.7342 13.9512 13.7027 14.027C13.6713 14.1029 13.6253 14.1718 13.5672 14.2299C13.5091 14.288 13.4402 14.334 13.3643 14.3655C13.2884 14.3969 13.2071 14.4131 13.125 14.4131C13.0429 14.4131 12.9616 14.3969 12.8857 14.3655C12.8098 14.334 12.7409 14.288 12.6828 14.2299L9.55782 11.1049C9.47031 11.0175 9.4107 10.9061 9.38655 10.7848C9.36239 10.6635 9.37477 10.5377 9.42211 10.4235C9.46946 10.3092 9.54964 10.2116 9.65251 10.1429C9.75539 10.0742 9.87632 10.0376 10 10.0377H14.375C14.5408 10.0377 14.6997 10.1036 14.8169 10.2208C14.9342 10.338 15 10.497 15 10.6627C15 10.8285 14.9342 10.9875 14.8169 11.1047C14.6997 11.2219 14.5408 11.2877 14.375 11.2877Z" fill="#FF8400"/>
</g>
<defs>
<clipPath id="clip0_381_60319">
<rect width="20" height="20" fill="white" transform="translate(0 0.66272)"/>
</clipPath>
</defs>
</svg>
