<svg width="60" height="60" viewBox="0 0 60 60" fill="none" xmlns="http://www.w3.org/2000/svg">
<path d="M44.0599 33.1654L42.2542 27.6815C42.1973 27.5095 42.1051 27.3564 41.9885 27.2266C41.9073 28.492 40.9263 29.5262 39.6801 29.5928C39.372 29.6088 39.0685 29.6171 38.778 29.6171H38.7505C37.9219 29.6169 37.1342 29.5534 36.3866 29.4381C36.3829 29.5973 36.4066 29.7599 36.4639 29.9181C36.7017 30.5742 37.4052 30.9049 38.0358 30.6572V30.6567L40.3545 29.7441L45.8569 46.4536C46.8094 45.3695 48.013 44.5458 49.3863 44.061C50.2693 43.7493 51.1867 43.5906 52.1114 43.5906C55.0575 43.5906 57.7345 45.1727 59.2678 47.6804C60.1801 47.6349 60.4138 47.0787 58.9478 45.0896C56.5842 41.8825 53.2964 41.2607 50.984 41.293C50.8388 40.8856 50.6888 40.4599 50.5325 40.0098C49.1155 35.9301 45.933 33.9871 44.0599 33.1654Z" fill="#0C7B11"/>
<path d="M33.0034 8.00528C33.0034 8.0223 33.0039 8.03983 33.0053 8.05939C33.0678 9.2882 33.3363 10.1442 33.3402 10.9933C33.3412 11.4311 33.26 11.8683 33.0312 12.3105C33.009 12.3536 32.9731 12.3907 32.9309 12.4141C32.2597 12.788 31.5384 12.9053 30.8047 12.9053C30.1636 12.9048 29.5092 12.8177 28.8486 12.7278C28.2322 12.6442 27.688 12.5121 27.2026 12.3323C27.9481 13.3366 29.0174 14.0902 30.2973 14.4003C33.2488 15.1161 36.198 13.2048 36.8862 10.1317C37.1901 8.77209 36.9996 7.41297 36.4376 6.25781C35.4551 6.38329 34.1325 6.63804 33.4651 7.17473C33.1605 7.41831 33.0061 7.67433 33.0034 8.00528Z" fill="#0C7B11"/>
<path d="M24.2899 19.9699L24.2884 19.9663L24.2779 19.9429C24.0079 19.3255 23.9854 18.6351 24.214 18.0002C24.4426 17.3652 24.8955 16.8605 25.4883 16.5801C25.8083 16.4279 26.1478 16.3515 26.4971 16.3515C27.4516 16.3515 28.3234 16.9357 28.7183 17.8399L28.7302 17.865C28.7483 17.9034 28.7783 17.9651 28.8202 18.0466C28.9051 18.2133 29.0483 18.4787 29.2474 18.802C29.4801 19.1815 29.8172 19.6844 30.2553 20.231C30.695 17.8305 29.7681 15.1829 27.8338 14.6812C25.7514 14.1405 22.7329 15.3182 21.5047 19.037C19.8448 24.1613 19.488 27.4964 20.1188 33.1389C20.7288 36.4078 22.5712 37.3311 24.4274 37.5551C24.4357 37.5566 24.4435 37.5591 24.4518 37.5604L33.7016 39.058L37.1666 48.2032C37.6395 49.4519 38.7882 50.2139 40.0037 50.2139C40.3759 50.2139 40.7547 50.1425 41.122 49.9916C42.688 49.348 43.4569 47.504 42.8393 45.8734L38.7331 35.036C38.3364 33.99 37.4317 33.2364 36.3653 33.0637L28.7015 31.8225C28.6617 29.9498 28.8598 28.0103 29.143 26.1625C28.5827 25.7038 28.0863 25.2367 27.6545 24.7874C25.5953 22.6525 24.5589 20.5604 24.2899 19.9699Z" fill="#0C7B11"/>
<path d="M38.7506 29.11H38.7782C39.0682 29.11 39.3604 29.1016 39.6551 29.0861C40.7315 29.0287 41.5597 28.0744 41.5048 26.9538C41.4499 25.8329 40.5327 24.9709 39.457 25.028C39.2236 25.0405 38.9975 25.0463 38.7782 25.0463C35.0396 25.0379 32.4999 23.3316 30.7485 21.542C29.884 20.65 29.2471 19.744 28.8371 19.0762C28.632 18.7425 28.4834 18.4676 28.39 18.2863C28.3436 18.1954 28.3105 18.1278 28.2917 18.0867C28.2836 18.0699 28.278 18.0574 28.2744 18.0503C27.8277 17.0288 26.6713 16.5774 25.6905 17.0425C24.7092 17.5068 24.276 18.7112 24.7221 19.7328C24.787 19.8727 25.7685 22.1158 28.0004 24.4279C30.2082 26.7267 33.8 29.1097 38.7506 29.11Z" fill="#0C7B11"/>
<path d="M18.0094 36.0311V20.2149C18.0094 19.4664 17.4266 18.8594 16.7078 18.8594H1.30158C0.582733 18.8596 0 19.4667 0 20.2152V36.0313C0 36.7801 0.582733 37.3869 1.30158 37.3869H16.7078C17.4266 37.3869 18.0094 36.7801 18.0094 36.0311Z" fill="#0C7B11"/>
<path d="M22.8669 50.0006C21.578 46.0429 17.4525 43.9221 13.6512 45.2642C9.85043 46.606 7.81367 50.9026 9.10256 54.8603C10.3912 58.818 14.5169 60.9388 18.3182 59.597C22.119 58.2549 24.1556 53.9583 22.8669 50.0006ZM16.9064 55.2616C15.4048 55.7919 13.7744 54.9535 13.2656 53.3904C12.7568 51.8268 13.5615 50.1291 15.0626 49.5993C16.5642 49.069 18.1946 49.9074 18.7034 51.4705C19.2129 53.0341 18.4082 54.7312 16.9064 55.2616Z" fill="#0C7B11"/>
<path d="M48.3373 32.7409C50.3913 32.7409 50.3913 24.9941 48.3373 24.9941C46.2829 24.9941 44.6174 26.7282 44.6174 28.8675C44.6174 31.0069 46.2829 32.7409 48.3373 32.7409Z" fill="#0C7B11"/>
<path d="M43.7192 51.1013H28.1668C26.8223 48.2767 26.3599 45.3931 26.2067 43.5173C26.606 43.3901 26.8982 43.0076 26.8982 42.5501V39.7562C26.8982 39.1951 26.4613 38.7402 25.9225 38.7402H6.04274C5.50391 38.7402 5.06705 39.1951 5.06705 39.7562V42.5501C5.06705 43.1112 5.50391 43.5661 6.04274 43.5661H6.15031C5.09071 46.2734 3.45544 50.9664 3.45544 54.1492H7.66117C7.29529 52.2486 7.53677 50.2863 8.37441 48.5192C9.37815 46.4027 11.1129 44.819 13.2595 44.0616C14.1432 43.7492 15.0599 43.5915 15.9851 43.5915C19.6234 43.5915 22.853 46.0029 24.0216 49.5931C24.5168 51.1133 24.5875 52.6779 24.3048 54.1492H26.0184H30.0431H43.7882C43.5933 53.1376 43.5706 52.1092 43.7192 51.1013Z" fill="#0C7B11"/>
<path d="M49.778 45.264C45.9771 46.6059 43.9404 50.9024 45.2293 54.8602C46.5179 58.8179 50.6436 60.9387 54.4449 59.5969C58.2458 58.255 60.2825 53.9585 58.9936 50.0008C57.705 46.043 53.5793 43.9222 49.778 45.264ZM53.0334 55.2617C51.5318 55.7921 49.9014 54.9536 49.3926 53.3905C48.8837 51.827 49.6884 50.1293 51.1895 49.5994C52.6911 49.0691 54.3215 49.9075 54.8303 51.4706C55.3397 53.0342 54.535 54.7314 53.0334 55.2617Z" fill="#0C7B11"/>
<path d="M37.0452 5.68132C36.941 4.90994 36.7071 4.17539 36.3639 3.50485C35.4318 1.68397 33.701 0.344161 31.5869 0.0561325C31.3081 0.0180335 31.031 0 30.7571 0C30.7568 0 30.7566 0 30.7561 0C27.6207 0 24.8936 2.42284 24.477 5.74914C24.4409 6.03843 24.4229 6.32595 24.4229 6.60966C24.4229 7.00234 24.4565 7.38866 24.5214 7.76635C24.7621 9.17372 25.169 10.1844 25.8432 10.8905C26.5169 11.5961 27.4821 12.0289 28.912 12.2244C29.5711 12.3144 30.2073 12.3979 30.8046 12.3972C31.4647 12.3972 32.0738 12.2968 32.6345 12.0024C32.7965 11.6626 32.8514 11.3477 32.8524 10.9936C32.8563 10.2672 32.5877 9.37794 32.5184 8.08867C32.5165 8.06123 32.516 8.03355 32.5155 8.00561C32.5136 7.48264 32.7921 7.06253 33.1714 6.76968C33.5524 6.47149 34.0439 6.26677 34.562 6.11235C35.4577 5.84718 36.4427 5.73948 37.0452 5.68132Z" fill="#0C7B11"/>
</svg>
