<svg width="60" height="60" viewBox="0 0 60 60" fill="none" xmlns="http://www.w3.org/2000/svg">
<path d="M56.129 19.3548H38.7097V4.83871C38.7076 3.55603 38.1972 2.32648 37.2902 1.41949C36.3832 0.512496 35.1536 0.00204737 33.871 0H4.83871C3.55603 0.00204737 2.32648 0.512496 1.41949 1.41949C0.512496 2.32648 0.00204737 3.55603 0 4.83871V42.5806C0.00204737 43.8633 0.512496 45.0929 1.41949 45.9999C2.32648 46.9069 3.55603 47.4173 4.83871 47.4194H31.9355V56.129C31.9369 57.1552 32.3452 58.139 33.0708 58.8647C33.7965 59.5903 34.7802 59.9986 35.8065 60H56.129C57.1552 59.9986 58.139 59.5903 58.8647 58.8647C59.5903 58.139 59.9986 57.1552 60 56.129V23.2258C59.9986 22.1996 59.5903 21.2158 58.8647 20.4902C58.139 19.7645 57.1552 19.3562 56.129 19.3548ZM18.3871 5.80645C18.3871 5.54979 18.4891 5.30364 18.6705 5.12215C18.852 4.94067 19.0982 4.83871 19.3548 4.83871C19.6115 4.83871 19.8576 4.94067 20.0391 5.12215C20.2206 5.30364 20.3226 5.54979 20.3226 5.80645V11.6129C20.3226 11.8696 20.2206 12.1157 20.0391 12.2972C19.8576 12.4787 19.6115 12.5806 19.3548 12.5806C19.0982 12.5806 18.852 12.4787 18.6705 12.2972C18.4891 12.1157 18.3871 11.8696 18.3871 11.6129V5.80645ZM8.70968 5.80645C8.71044 5.55003 8.81265 5.30432 8.99397 5.123C9.17529 4.94168 9.42099 4.83948 9.67742 4.83871H15.4839C15.7403 4.83948 15.986 4.94168 16.1673 5.123C16.3486 5.30432 16.4508 5.55003 16.4516 5.80645V11.6129C16.4508 11.8693 16.3486 12.115 16.1673 12.2964C15.986 12.4777 15.7403 12.5799 15.4839 12.5806H9.67742C9.42099 12.5799 9.17529 12.4777 8.99397 12.2964C8.81265 12.115 8.71044 11.8693 8.70968 11.6129V5.80645ZM9.67742 14.5161H15.4839C15.7405 14.5161 15.9867 14.6181 16.1682 14.7996C16.3497 14.9811 16.4516 15.2272 16.4516 15.4839C16.4516 15.7405 16.3497 15.9867 16.1682 16.1682C15.9867 16.3497 15.7405 16.4516 15.4839 16.4516H9.67742C9.42076 16.4516 9.17461 16.3497 8.99312 16.1682C8.81164 15.9867 8.70968 15.7405 8.70968 15.4839C8.70968 15.2272 8.81164 14.9811 8.99312 14.7996C9.17461 14.6181 9.42076 14.5161 9.67742 14.5161ZM8.70968 25.1613V19.3548C8.71044 19.0984 8.81265 18.8527 8.99397 18.6714C9.17529 18.4901 9.42099 18.3879 9.67742 18.3871H15.4839C15.7403 18.3879 15.986 18.4901 16.1673 18.6714C16.3486 18.8527 16.4508 19.0984 16.4516 19.3548V25.1613C16.4508 25.4177 16.3486 25.6634 16.1673 25.8447C15.986 26.0261 15.7403 26.1283 15.4839 26.129H9.67742C9.42099 26.1283 9.17529 26.0261 8.99397 25.8447C8.81265 25.6634 8.71044 25.4177 8.70968 25.1613ZM27.779 35.1823L25.65 37.3113C25.3606 37.6016 25.0167 37.8318 24.638 37.9887C24.2594 38.1457 23.8534 38.2263 23.4435 38.2258C22.9527 38.2241 22.4689 38.1081 22.0306 37.8871L20.7242 39.1935L23.9081 42.3823C23.9977 42.4719 24.0687 42.5782 24.1172 42.6953C24.1657 42.8123 24.1907 42.9378 24.1907 43.0645C24.1907 43.1912 24.1657 43.3167 24.1172 43.4337C24.0687 43.5508 23.9977 43.6572 23.9081 43.7468C23.8185 43.8364 23.7121 43.9074 23.595 43.9559C23.478 44.0044 23.3525 44.0294 23.2258 44.0294C23.0991 44.0294 22.9736 44.0044 22.8566 43.9559C22.7395 43.9074 22.6331 43.8364 22.5435 43.7468L19.3548 40.5629L16.1661 43.7468C15.9852 43.9277 15.7398 44.0294 15.4839 44.0294C15.228 44.0294 14.9826 43.9277 14.8016 43.7468C14.6207 43.5658 14.519 43.3204 14.519 43.0645C14.519 42.8086 14.6207 42.5632 14.8016 42.3823L17.9855 39.1935L16.4565 37.6597C15.9315 38.0193 15.3121 38.2163 14.6758 38.2258C14.5837 38.2261 14.4916 38.2212 14.4 38.2113C13.5368 38.0974 12.7407 37.6848 12.15 37.0452C11.2887 36.1839 10.9016 34.6306 10.8048 34.1758C10.5871 33.1645 10.4806 31.8048 11.2258 31.0645C11.971 30.3242 13.3258 30.4258 14.3371 30.6435C14.7919 30.7403 16.3452 31.1274 17.2065 31.9839V31.9887C18.5468 33.3242 18.75 34.8871 17.821 36.2952L19.3548 37.8242L20.6613 36.5177C20.3638 35.9307 20.2593 35.2647 20.3627 34.6148C20.4661 33.9648 20.7721 33.3641 21.2371 32.8984L23.3661 30.7694C23.5499 30.6022 23.7909 30.5122 24.0393 30.5178C24.2877 30.5235 24.5243 30.6245 24.7003 30.7998C24.8763 30.9752 24.9781 31.2115 24.9846 31.4598C24.9912 31.7081 24.902 31.9495 24.7355 32.1339L22.6065 34.2677C22.3911 34.4911 22.2721 34.7901 22.2749 35.1003C22.2777 35.4106 22.4023 35.7073 22.6216 35.9267C22.841 36.1461 23.1378 36.2706 23.448 36.2735C23.7583 36.2763 24.0573 36.1573 24.2806 35.9419L26.4145 33.8129C26.5989 33.6464 26.8402 33.5572 27.0886 33.5638C27.3369 33.5703 27.5732 33.6721 27.7486 33.8481C27.9239 34.0241 28.0249 34.2607 28.0305 34.5091C28.0362 34.7574 27.9462 34.9985 27.779 35.1823ZM21.2903 25.1613C21.2911 24.9049 21.3933 24.6592 21.5746 24.4778C21.7559 24.2965 22.0016 24.1943 22.2581 24.1935H23.7097C23.9663 24.1935 24.2125 24.2955 24.394 24.477C24.5755 24.6585 24.6774 24.9046 24.6774 25.1613C24.6774 25.418 24.5755 25.6641 24.394 25.8456C24.2125 26.0271 23.9663 26.129 23.7097 26.129H22.2581C22.0016 26.1283 21.7559 26.0261 21.5746 25.8447C21.3933 25.6634 21.2911 25.4177 21.2903 25.1613ZM30 25.1613C29.9992 25.4177 29.897 25.6634 29.7157 25.8447C29.5344 26.0261 29.2887 26.1283 29.0323 26.129H26.6129C26.3562 26.129 26.1101 26.0271 25.9286 25.8456C25.7471 25.6641 25.6452 25.418 25.6452 25.1613C25.6452 24.9046 25.7471 24.6585 25.9286 24.477C26.1101 24.2955 26.3562 24.1935 26.6129 24.1935H28.0645V21.2903C28.0645 21.0337 28.1665 20.7875 28.348 20.606C28.5294 20.4245 28.7756 20.3226 29.0323 20.3226C29.2889 20.3226 29.5351 20.4245 29.7166 20.606C29.898 20.7875 30 21.0337 30 21.2903V25.1613ZM29.0323 19.3548H26.129C25.8724 19.3548 25.6262 19.2529 25.4447 19.0714C25.2632 18.8899 25.1613 18.6438 25.1613 18.3871C25.1613 18.1304 25.2632 17.8843 25.4447 17.7028C25.6262 17.5213 25.8724 17.4194 26.129 17.4194H29.0323C29.2889 17.4194 29.5351 17.5213 29.7166 17.7028C29.898 17.8843 30 18.1304 30 18.3871C30 18.6438 29.898 18.8899 29.7166 19.0714C29.5351 19.2529 29.2889 19.3548 29.0323 19.3548ZM29.0323 16.4516H23.7097V20.8065H25.6452C25.9018 20.8065 26.148 20.9084 26.3295 21.0899C26.5109 21.2714 26.6129 21.5175 26.6129 21.7742C26.6129 22.0309 26.5109 22.277 26.3295 22.4585C26.148 22.64 25.9018 22.7419 25.6452 22.7419H22.7419C22.4855 22.7412 22.2398 22.639 22.0585 22.4576C21.8772 22.2763 21.775 22.0306 21.7742 21.7742V16.4516H20.3226V25.1613C20.3226 25.418 20.2206 25.6641 20.0391 25.8456C19.8576 26.0271 19.6115 26.129 19.3548 26.129C19.0982 26.129 18.852 26.0271 18.6705 25.8456C18.4891 25.6641 18.3871 25.418 18.3871 25.1613V15.4839C18.3879 15.2274 18.4901 14.9817 18.6714 14.8004C18.8527 14.6191 19.0984 14.5169 19.3548 14.5161H29.0323C29.2889 14.5161 29.5351 14.6181 29.7166 14.7996C29.898 14.9811 30 15.2272 30 15.4839C30 15.7405 29.898 15.9867 29.7166 16.1682C29.5351 16.3497 29.2889 16.4516 29.0323 16.4516ZM30 11.6129C29.9992 11.8693 29.897 12.115 29.7157 12.2964C29.5344 12.4777 29.2887 12.5799 29.0323 12.5806H23.2258C22.9694 12.5799 22.7237 12.4777 22.5424 12.2964C22.361 12.115 22.2588 11.8693 22.2581 11.6129V5.80645C22.2588 5.55003 22.361 5.30432 22.5424 5.123C22.7237 4.94168 22.9694 4.83948 23.2258 4.83871H29.0323C29.2887 4.83948 29.5344 4.94168 29.7157 5.123C29.897 5.30432 29.9992 5.55003 30 5.80645V11.6129ZM58.0645 56.129C58.0645 56.6424 57.8606 57.1347 57.4976 57.4976C57.1347 57.8606 56.6424 58.0645 56.129 58.0645H35.8065C35.2931 58.0645 34.8008 57.8606 34.4379 57.4976C34.0749 57.1347 33.871 56.6424 33.871 56.129V55.1613H58.0645V56.129ZM58.0645 53.2258H33.871V26.129H58.0645V53.2258ZM58.0645 24.1935H33.871V23.2258C33.871 22.7125 34.0749 22.2202 34.4379 21.8572C34.8008 21.4942 35.2931 21.2903 35.8065 21.2903H56.129C56.6424 21.2903 57.1347 21.4942 57.4976 21.8572C57.8606 22.2202 58.0645 22.7125 58.0645 23.2258V24.1935Z" fill="#0C7B11"/>
<path d="M10.6451 20.3223H14.5161V24.1932H10.6451V20.3223Z" fill="#0C7B11"/>
<path d="M24.1935 6.77344H28.0644V10.6444H24.1935V6.77344Z" fill="#0C7B11"/>
<path d="M10.6451 6.77344H14.5161V10.6444H10.6451V6.77344Z" fill="#0C7B11"/>
<path d="M45.4837 57.58H46.4515C46.7081 57.58 46.9543 57.4781 47.1358 57.2966C47.3173 57.1151 47.4192 56.8689 47.4192 56.6123C47.4192 56.3556 47.3173 56.1095 47.1358 55.928C46.9543 55.7465 46.7081 55.6445 46.4515 55.6445H45.4837C45.2271 55.6445 44.9809 55.7465 44.7994 55.928C44.6179 56.1095 44.516 56.3556 44.516 56.6123C44.516 56.8689 44.6179 57.1151 44.7994 57.2966C44.9809 57.4781 45.2271 57.58 45.4837 57.58Z" fill="#0C7B11"/>
<path d="M50.8064 47.9051H53.7096C53.9663 47.9051 54.2124 47.8032 54.3939 47.6217C54.5754 47.4402 54.6773 47.194 54.6773 46.9374V44.0341C54.6773 43.7775 54.5754 43.5313 54.3939 43.3499C54.2124 43.1684 53.9663 43.0664 53.7096 43.0664C53.4529 43.0664 53.2068 43.1684 53.0253 43.3499C52.8438 43.5313 52.7418 43.7775 52.7418 44.0341V45.9696H50.8064C50.5497 45.9696 50.3036 46.0716 50.1221 46.2531C49.9406 46.4346 49.8386 46.6807 49.8386 46.9374C49.8386 47.194 49.9406 47.4402 50.1221 47.6217C50.3036 47.8032 50.5497 47.9051 50.8064 47.9051Z" fill="#0C7B11"/>
<path d="M50.8064 33.3867H52.7418V35.3221C52.7418 35.5788 52.8438 35.825 53.0253 36.0064C53.2068 36.1879 53.4529 36.2899 53.7096 36.2899C53.9663 36.2899 54.2124 36.1879 54.3939 36.0064C54.5754 35.825 54.6773 35.5788 54.6773 35.3221V32.4189C54.6773 32.1623 54.5754 31.9161 54.3939 31.7346C54.2124 31.5531 53.9663 31.4512 53.7096 31.4512H50.8064C50.5497 31.4512 50.3036 31.5531 50.1221 31.7346C49.9406 31.9161 49.8386 32.1623 49.8386 32.4189C49.8386 32.6756 49.9406 32.9217 50.1221 33.1032C50.3036 33.2847 50.5497 33.3867 50.8064 33.3867Z" fill="#0C7B11"/>
<path d="M38.2259 36.2899C38.4826 36.2899 38.7287 36.1879 38.9102 36.0064C39.0917 35.825 39.1937 35.5788 39.1937 35.3221V33.3867H41.1291C41.3858 33.3867 41.632 33.2847 41.8134 33.1032C41.9949 32.9217 42.0969 32.6756 42.0969 32.4189C42.0969 32.1623 41.9949 31.9161 41.8134 31.7346C41.632 31.5531 41.3858 31.4512 41.1291 31.4512H38.2259C37.9693 31.4512 37.7231 31.5531 37.5416 31.7346C37.3601 31.9161 37.2582 32.1623 37.2582 32.4189V35.3221C37.2582 35.5788 37.3601 35.825 37.5416 36.0064C37.7231 36.1879 37.9693 36.2899 38.2259 36.2899Z" fill="#0C7B11"/>
<path d="M38.2259 47.9051H41.1291C41.3858 47.9051 41.632 47.8032 41.8134 47.6217C41.9949 47.4402 42.0969 47.194 42.0969 46.9374C42.0969 46.6807 41.9949 46.4346 41.8134 46.2531C41.632 46.0716 41.3858 45.9696 41.1291 45.9696H39.1937V44.0341C39.1937 43.7775 39.0917 43.5313 38.9102 43.3499C38.7287 43.1684 38.4826 43.0664 38.2259 43.0664C37.9693 43.0664 37.7231 43.1684 37.5416 43.3499C37.3601 43.5313 37.2582 43.7775 37.2582 44.0341V46.9374C37.2582 47.194 37.3601 47.4402 37.5416 47.6217C37.7231 47.8032 37.9693 47.9051 38.2259 47.9051Z" fill="#0C7B11"/>
<path d="M12.6096 32.4489C12.4403 33.0343 12.8758 35.0376 13.5145 35.6763C14.0627 36.1698 14.758 36.6537 15.837 35.6763C16.4129 35.1053 16.8629 34.3795 15.837 33.3537C15.1983 32.715 13.1951 32.2795 12.6096 32.4489Z" fill="#0C7B11"/>
<path d="M45.9677 23.7089C46.5022 23.7089 46.9355 23.2756 46.9355 22.7412C46.9355 22.2067 46.5022 21.7734 45.9677 21.7734C45.4333 21.7734 45 22.2067 45 22.7412C45 23.2756 45.4333 23.7089 45.9677 23.7089Z" fill="#0C7B11"/>
</svg>
