<svg width="20" height="20" viewBox="0 0 20 20" fill="none" xmlns="http://www.w3.org/2000/svg">
<path d="M19.5673 9.30843L13.3173 3.05843C13.2299 2.97097 13.1186 2.91138 12.9973 2.8872C12.8761 2.86302 12.7504 2.87533 12.6362 2.92258C12.522 2.96982 12.4243 3.04989 12.3556 3.15264C12.2868 3.25539 12.2501 3.37621 12.2501 3.49983V6.65218C10.2235 6.82561 7.98523 7.8178 6.14382 9.37952C3.92664 11.2608 2.54617 13.685 2.25632 16.2053C2.23367 16.4012 2.2734 16.5993 2.36986 16.7714C2.46631 16.9435 2.61458 17.0807 2.79356 17.1636C2.97253 17.2465 3.1731 17.2709 3.36672 17.2332C3.56033 17.1955 3.73713 17.0977 3.87195 16.9537C4.73132 16.0389 7.78914 13.1459 12.2501 12.8912V15.9998C12.2501 16.1235 12.2868 16.2443 12.3556 16.347C12.4243 16.4498 12.522 16.5298 12.6362 16.5771C12.7504 16.6243 12.8761 16.6366 12.9973 16.6125C13.1186 16.5883 13.2299 16.5287 13.3173 16.4412L19.5673 10.1912C19.6841 10.0741 19.7498 9.91533 19.7498 9.74983C19.7498 9.58433 19.6841 9.42559 19.5673 9.30843ZM13.5001 14.4912V12.2498C13.5001 12.0841 13.4342 11.9251 13.317 11.8079C13.1998 11.6907 13.0408 11.6248 12.8751 11.6248C10.6813 11.6248 8.54461 12.1975 6.52429 13.328C5.49534 13.9063 4.53664 14.6015 3.66726 15.3998C4.12039 13.5373 5.26257 11.7662 6.95242 10.3326C8.76648 8.79436 10.9805 7.87483 12.8751 7.87483C13.0408 7.87483 13.1998 7.80898 13.317 7.69177C13.4342 7.57456 13.5001 7.41559 13.5001 7.24983V5.00921L18.2415 9.74983L13.5001 14.4912Z" fill="#282828"/>
</svg>