<svg width="60" height="60" viewBox="0 0 60 60" fill="none" xmlns="http://www.w3.org/2000/svg">
<path d="M29.5561 12.4133L33.8419 8.27539H3.21425C2.77738 8.27539 2.14282 9.08137 2.14282 10.3443C2.14282 11.6073 2.77738 12.4133 3.21425 12.4133H29.5561Z" fill="#0C7B11"/>
<path d="M34.5683 20.4101C33.7004 21.0619 32.6239 21.4005 31.5248 21.3674C30.4258 21.3344 29.3732 20.9317 28.549 20.229C27.7247 19.5263 27.1806 18.5677 27.0106 17.5188C26.8406 16.4699 27.0554 15.3966 27.6178 14.4844H5.08634L0.0908038 30.8123C0.0305408 31.0523 5.85653e-05 31.2983 0 31.5452V60.001H35.3572V31.5452C35.3572 31.1224 35.4109 30.7012 35.5169 30.2909C35.5207 30.2768 35.5247 30.2626 35.529 30.2485L39.7232 16.539L34.5683 20.4101ZM17.1429 35.1738H17.1409C17.1416 35.3342 17.1035 35.4927 17.0297 35.6364L15.0182 39.5207L15.9047 51.5042C15.9361 51.9293 15.8766 52.356 15.7297 52.7579C15.5828 53.1598 15.3518 53.5282 15.051 53.8401C14.7502 54.152 14.3861 54.4007 13.9814 54.5708C13.5767 54.7409 13.14 54.8287 12.6986 54.8287H10.8729C10.4315 54.8287 9.99479 54.7409 9.59007 54.5708C9.18534 54.4007 8.82124 54.152 8.52044 53.8401C8.21965 53.5282 7.98862 53.1598 7.84174 52.7579C7.69487 52.356 7.6353 51.9293 7.66675 51.5042L8.55322 39.5207L6.54175 35.6364C6.46791 35.4927 6.42984 35.3342 6.43059 35.1738H6.42858V31.0359C6.42858 30.7615 6.54146 30.4984 6.74239 30.3044C6.94332 30.1104 7.21584 30.0014 7.50001 30.0014C7.78417 30.0014 8.05669 30.1104 8.25762 30.3044C8.45855 30.4984 8.57143 30.7615 8.57143 31.0359V34.1393H10.7143V31.0359C10.7143 30.7615 10.8272 30.4984 11.0281 30.3044C11.229 30.1104 11.5016 30.0014 11.7857 30.0014C12.0699 30.0014 12.3424 30.1104 12.5433 30.3044C12.7443 30.4984 12.8572 30.7615 12.8572 31.0359V34.1393H15V31.0359C15 30.7615 15.1129 30.4984 15.3138 30.3044C15.5148 30.1104 15.7873 30.0014 16.0714 30.0014C16.3556 30.0014 16.6281 30.1104 16.8291 30.3044C17.03 30.4984 17.1429 30.7615 17.1429 31.0359V35.1738ZM26.8011 53.8072C26.4995 54.1285 26.1317 54.3855 25.7211 54.5614C25.3105 54.7373 24.8664 54.8284 24.4172 54.8287H22.725C22.2759 54.8287 21.8319 54.7378 21.4214 54.5619C21.0109 54.3861 20.6432 54.1291 20.3419 53.8076C20.0405 53.4862 19.8123 53.1073 19.6719 52.6954C19.5316 52.2836 19.4821 51.8479 19.5268 51.4165L20.3572 43.3978V43.0538L18.8065 42.3053C18.6163 42.2135 18.4588 42.0691 18.3538 41.8905C18.2489 41.712 18.2013 41.5073 18.2172 41.3026C18.2531 40.8418 19.1705 30.0014 25.7143 30.0014C25.9985 30.0014 26.271 30.1104 26.4719 30.3044C26.6729 30.4984 26.7857 30.7615 26.7857 31.0359V43.3978L27.6161 51.416C27.6605 51.8474 27.6109 52.283 27.4705 52.6948C27.3302 53.1066 27.1022 53.4855 26.8011 53.8072Z" fill="#0C7B11"/>
<path d="M53.5714 0H60V11.3792H53.5714V0Z" fill="#0C7B11"/>
<path d="M27.3141 2.50013L20.2733 6.20819H36.4286C36.6405 6.20818 36.8477 6.26885 37.0239 6.38252C37.2001 6.49619 37.3374 6.65775 37.4185 6.84678C37.4996 7.03581 37.5208 7.24381 37.4795 7.44449C37.4381 7.64516 37.3361 7.82949 37.1862 7.97416L29.8512 15.0563C29.3876 15.5035 29.118 16.1047 29.0975 16.7372C29.077 17.3697 29.3071 17.9859 29.7409 18.4603C30.1747 18.9347 30.7795 19.2315 31.432 19.2903C32.0846 19.3491 32.7359 19.1654 33.253 18.7766L39.9397 13.7553C40.2038 13.5576 40.5284 13.4501 40.8626 13.4495H43.4964C44.4632 13.4484 45.39 13.0771 46.0736 12.4171C46.7573 11.7571 47.1418 10.8622 47.1429 9.92879C47.1434 9.4909 47.3238 9.07109 47.6445 8.76146C47.9652 8.45182 48.4 8.27764 48.8536 8.27713H51.4286V2.07031H29.0601C28.4501 2.07071 27.8498 2.21847 27.3141 2.50013Z" fill="#0C7B11"/>
<path d="M12.9307 40.3457H10.6406L9.80337 51.6513C9.79291 51.793 9.81278 51.9352 9.86175 52.0692C9.91072 52.2031 9.98774 52.3259 10.088 52.4299C10.1883 52.5338 10.3096 52.6167 10.4445 52.6734C10.5794 52.7301 10.725 52.7593 10.8721 52.7593H12.6978C12.845 52.7593 12.9905 52.7301 13.1254 52.6734C13.2603 52.6167 13.3817 52.5338 13.482 52.4299C13.5822 52.3259 13.6592 52.2031 13.7082 52.0692C13.7572 51.9352 13.7771 51.793 13.7666 51.6513L12.9307 40.3457Z" fill="#0C7B11"/>
<path d="M22.5001 42.4159H24.643V32.2598C23.3224 32.7456 22.2406 34.1686 21.4172 36.5079C20.9468 37.8972 20.6165 39.327 20.4308 40.7776L21.9079 41.4907C22.0858 41.5766 22.2355 41.7087 22.3401 41.8721C22.4447 42.0355 22.5001 42.2238 22.5001 42.4159Z" fill="#0C7B11"/>
<path d="M10.3051 38.276H13.2665L14.3379 36.207H9.23364L10.3051 38.276Z" fill="#0C7B11"/>
<path d="M39.0153 59.9991H44.5562L41.7857 57.3242L39.0153 59.9991Z" fill="#0C7B11"/>
<path d="M24.7445 44.4844H22.3981L21.6587 51.6222C21.6437 51.7661 21.6601 51.9114 21.7069 52.0487C21.7537 52.1861 21.8297 52.3124 21.9302 52.4197C22.0307 52.5269 22.1533 52.6126 22.2902 52.6712C22.4271 52.7299 22.5751 52.7602 22.7249 52.7601H24.4178C24.5675 52.7602 24.7156 52.7299 24.8525 52.6712C24.9894 52.6126 25.112 52.5269 25.2124 52.4197C25.3129 52.3124 25.389 52.1861 25.4357 52.0487C25.4825 51.9114 25.4989 51.7661 25.484 51.6222L24.7445 44.4844Z" fill="#0C7B11"/>
<path d="M37.5909 30.8091C37.5306 31.049 37.5001 31.2951 37.5 31.542V58.5348L40.7143 55.4314V33.1016C40.7143 32.8272 40.8272 32.5641 41.0281 32.3701C41.229 32.1761 41.5016 32.0671 41.7857 32.0671C42.0699 32.0671 42.3424 32.1761 42.5433 32.3701C42.7443 32.5641 42.8571 32.8272 42.8571 33.1016V55.4314L46.0714 58.5348V31.6285C46.0715 31.3322 46.0275 31.0375 45.9409 30.7532L41.7834 17.1055L37.5909 30.8091Z" fill="#0C7B11"/>
</svg>
