<svg width="16" height="17" viewBox="0 0 16 17" fill="none" xmlns="http://www.w3.org/2000/svg">
<g clip-path="url(#clip0_186_55225)">
<path d="M12 2.5H4C3.72386 2.5 3.5 2.72386 3.5 3V6C3.5 6.27614 3.72386 6.5 4 6.5H12C12.2761 6.5 12.5 6.27614 12.5 6V3C12.5 2.72386 12.2761 2.5 12 2.5Z" stroke="#626576" stroke-linecap="round" stroke-linejoin="round"/>
<path d="M13 9.5H3C2.72386 9.5 2.5 9.72386 2.5 10V11C2.5 11.2761 2.72386 11.5 3 11.5H13C13.2761 11.5 13.5 11.2761 13.5 11V10C13.5 9.72386 13.2761 9.5 13 9.5Z" stroke="#626576" stroke-linecap="round" stroke-linejoin="round"/>
<path d="M5.5 6.5V9.5" stroke="#626576" stroke-linecap="round" stroke-linejoin="round"/>
<path d="M10.5 6.5V9.5" stroke="#626576" stroke-linecap="round" stroke-linejoin="round"/>
<path d="M12 11.5V14.5" stroke="#626576" stroke-linecap="round" stroke-linejoin="round"/>
<path d="M4 11.5V14.5" stroke="#626576" stroke-linecap="round" stroke-linejoin="round"/>
</g>
<defs>
<clipPath id="clip0_186_55225">
<rect width="16" height="16" fill="white" transform="translate(0 0.5)"/>
</clipPath>
</defs>
</svg>
