<svg width="46" height="46" viewBox="0 0 46 46" fill="none" xmlns="http://www.w3.org/2000/svg">
<rect width="46" height="46" rx="23" fill="#FD0151"/>
<path d="M30.9027 24.973C30.9027 22.7816 30.0701 20.68 28.588 19.1304C27.1059 17.5808 25.0958 16.7103 22.9998 16.7103C20.9039 16.7103 18.8937 17.5808 17.4117 19.1304C15.9296 20.68 15.097 22.7816 15.097 24.973L30.9027 24.973Z" fill="white"/>
<path d="M13.6533 25.4755H32.3467V27.9914H13.6533V25.4755Z" fill="white"/>
<path d="M24.2305 15.1637C24.2305 15.8015 23.6771 16.3186 22.9945 16.3186C22.312 16.3186 21.7586 15.8015 21.7586 15.1637C21.7586 14.5259 22.312 14.0088 22.9945 14.0088C23.6771 14.0088 24.2305 14.5259 24.2305 15.1637Z" fill="white"/>
</svg>