<svg width="90" height="90" viewBox="0 0 90 90" fill="none" xmlns="http://www.w3.org/2000/svg">
<g clip-path="url(#clip0_417_32754)">
<path d="M45 8.4375C37.7686 8.4375 30.6997 10.5819 24.687 14.5994C18.6743 18.6169 13.988 24.3272 11.2207 31.0081C8.45334 37.6891 7.72928 45.0406 9.14005 52.133C10.5508 59.2254 14.0331 65.7402 19.1464 70.8536C24.2598 75.9669 30.7746 79.4492 37.867 80.86C44.9595 82.2707 52.311 81.5467 58.9919 78.7793C65.6728 76.012 71.3831 71.3257 75.4006 65.313C79.4182 59.3004 81.5625 52.2314 81.5625 45C81.5523 35.3062 77.6969 26.0123 70.8423 19.1577C63.9877 12.3031 54.6939 8.44774 45 8.4375ZM61.0524 38.5523L41.3649 58.2398C41.1037 58.5013 40.7935 58.7088 40.452 58.8503C40.1106 58.9919 39.7446 59.0647 39.375 59.0647C39.0054 59.0647 38.6394 58.9919 38.298 58.8503C37.9566 58.7088 37.6464 58.5013 37.3852 58.2398L28.9477 49.8023C28.4199 49.2746 28.1235 48.5588 28.1235 47.8125C28.1235 47.0662 28.4199 46.3504 28.9477 45.8227C29.4754 45.2949 30.1912 44.9984 30.9375 44.9984C31.6839 44.9984 32.3996 45.2949 32.9274 45.8227L39.375 52.2738L57.0727 34.5727C57.334 34.3113 57.6442 34.1041 57.9856 33.9626C58.327 33.8212 58.693 33.7484 59.0625 33.7484C59.4321 33.7484 59.798 33.8212 60.1394 33.9626C60.4808 34.1041 60.791 34.3113 61.0524 34.5727C61.3137 34.834 61.521 35.1442 61.6624 35.4856C61.8038 35.827 61.8766 36.193 61.8766 36.5625C61.8766 36.932 61.8038 37.298 61.6624 37.6394C61.521 37.9808 61.3137 38.291 61.0524 38.5523Z" fill="#11AF22"/>
</g>
<defs>
<clipPath id="clip0_417_32754">
<rect width="90" height="90" fill="white"/>
</clipPath>
</defs>
</svg>
