<svg width="33" height="32" viewBox="0 0 33 32" fill="none" xmlns="http://www.w3.org/2000/svg">
<rect x="1" y="0.5" width="31" height="31" rx="15.5" stroke="white" stroke-opacity="0.1"/>
<g clip-path="url(#clip0_417_32786)">
<path d="M27.9808 15.1702L20.4808 7.67016C20.3759 7.56521 20.2423 7.4937 20.0968 7.46468C19.9514 7.43567 19.8006 7.45044 19.6635 7.50714C19.5264 7.56384 19.4092 7.65991 19.3267 7.78321C19.2443 7.90652 19.2002 8.05151 19.2001 8.19985V11.9827C16.7683 12.1908 14.0823 13.3814 11.8726 15.2555C9.21201 17.513 7.55545 20.422 7.20764 23.4464C7.18046 23.6815 7.22813 23.9193 7.34388 24.1257C7.45963 24.3322 7.63754 24.4969 7.85232 24.5964C8.06709 24.6959 8.30777 24.7251 8.54011 24.6799C8.77245 24.6347 8.9846 24.5173 9.14639 24.3445C10.1776 23.2467 13.847 19.7752 19.2001 19.4695V23.1998C19.2002 23.3482 19.2443 23.4932 19.3267 23.6165C19.4092 23.7398 19.5264 23.8359 19.6635 23.8926C19.8006 23.9493 19.9514 23.964 20.0968 23.935C20.2423 23.906 20.3759 23.8345 20.4808 23.7295L27.9808 16.2295C28.121 16.0889 28.1998 15.8984 28.1998 15.6998C28.1998 15.5013 28.121 15.3108 27.9808 15.1702ZM20.7001 21.3895V18.6998C20.7001 18.5009 20.6211 18.3102 20.4805 18.1695C20.3398 18.0289 20.149 17.9498 19.9501 17.9498C17.3176 17.9498 14.7536 18.637 12.3292 19.9936C11.0945 20.6876 9.94402 21.5218 8.90076 22.4798C9.44451 20.2448 10.8151 18.1195 12.843 16.3992C15.0198 14.5533 17.6767 13.4498 19.9501 13.4498C20.149 13.4498 20.3398 13.3708 20.4805 13.2302C20.6211 13.0895 20.7001 12.8988 20.7001 12.6998V10.0111L26.3898 15.6998L20.7001 21.3895Z" fill="#282828"/>
</g>
<defs>
<clipPath id="clip0_417_32786">
<rect width="24" height="24" fill="white" transform="translate(4.5 4)"/>
</clipPath>
</defs>
</svg>
